<?xml version="1.0" standalone="no"?>
<!DOCTYPE svg PUBLIC "-//W3C//DTD SVG 1.1//EN" "http://www.w3.org/Graphics/SVG/1.1/DTD/svg11.dtd" >
<svg xmlns="http://www.w3.org/2000/svg">
<metadata>Generated by IcoMoon</metadata>
<defs>
<font id="icomoon" horiz-adv-x="1024">
<font-face units-per-em="1024" ascent="960" descent="-64" />
<missing-glyph horiz-adv-x="1024" />
<glyph unicode="&#x20;" horiz-adv-x="512" d="" />
<glyph unicode="&#xe001;" glyph-name="bhy-user-online" horiz-adv-x="1449" d="M819.188 419.803c80.567 33.823 137.299 113.476 137.299 206.192 0 123.254-100.276 223.53-223.526 223.53-123.271 0-223.548-100.276-223.548-223.53 0-93.753 58.084-174.074 140.11-207.213-141.483-37.726-250.986-163.684-250.986-314.874 0-11.862 0.719-23.574 2.004-35.157h662.817c1.159 11.095 1.756 22.344 1.756 33.7 0 152.766-104.564 280.785-245.927 317.353v0z" />
<glyph unicode="&#xe002;" glyph-name="bhy-user-outline" d="M309.52 465.88c-1.94 0-3.47-0.28-4.67-0.76 1.63 0.49 3.37 0.76 5.16 0.76h-0.49zM845.13 252.48c0.050 0.99 0.18 1.96 0.39 2.9-0.23-0.43-0.35-1.35-0.39-2.9zM880.86 646.71c0.010 0.040 0.010 0.090 0.010 0.13v0.46c0-0.2 0-0.4-0.010-0.59zM845.11 646.77c0-0.040 0-0.080 0.010-0.12-0.010 0.21-0.010 0.43-0.010 0.65v-0.53zM866.673 110.57c-5.030 37.45-16.030 73.61-32.69 107.48-3.26 6.62-6.71 13.13-10.37 19.51-0.010 0.020-0.020 0.040-0.040 0.060-15.86 26.86-35.32 51.8-58 74.060l-0.010 0.010c-4.93 4.84-10.010 9.56-15.24 14.14-37.29 32.68-80.34 56.91-126.25 71.65 8.31 4.6 16.35 9.76 24.070 15.47 8.79 6.48 17.16 13.68 25.030 21.55 41.39 41.39 64.19 96.43 64.19 154.97s-22.8 113.58-64.19 154.97c-40.64 40.64-94.44 63.35-151.78 64.17-0.91 0.010-1.82 0.020-2.73 0.020s-1.82-0.010-2.73-0.020c-57.34-0.82-111.14-23.53-151.78-64.17-41.39-41.39-64.19-96.43-64.19-154.97s22.8-113.58 64.19-154.97c7.87-7.87 16.24-15.070 25.030-21.55 7.72-5.71 15.76-10.87 24.070-15.47-45.91-14.74-88.96-38.97-126.25-71.65-5.23-4.58-10.31-9.3-15.24-14.14-22.7-22.28-42.18-47.24-58.050-74.13-3.66-6.38-7.11-12.89-10.37-19.51-16.66-33.87-27.66-70.030-32.69-107.48-1.61-12 6.81-23.030 18.8-24.64 0.99-0.13 1.98-0.2 2.95-0.2 0.89 0 1.76 0.050 2.63 0.16 8.67 1.89 15.67 8.96 17.030 18.25 10.1 69.32 43.14 132.31 90.63 180.28 56.36 56.95 133.070 92.74 215.97 92.88h0.47c82.72-0.28 159.25-36.040 215.5-92.88 47.49-47.97 80.53-110.96 90.63-180.28 1.36-9.27 8.33-16.33 16.98-18.24 0.020 0 0.030-0.010 0.050-0.010 0.87-0.11 1.74-0.16 2.63-0.16 0.97 0 1.96 0.070 2.95 0.2 11.99 1.61 20.41 12.64 18.8 24.64zM518.193 414.14c-0.44 0-0.88 0-1.32 0.010-81.8 0.6-154.73 57.43-174.66 133.66-0.22 0.83-0.44 1.67-0.64 2.51-3.12 12.6-4.78 25.7-4.78 39.15s1.66 26.7 4.78 39.52c0.2 0.86 0.42 1.71 0.64 2.56 20.040 78.14 93.65 140.25 175.98 140.25h0.94c82.33 0 155.94-62.11 175.98-140.25 0.22-0.85 0.44-1.7 0.64-2.56 3.12-12.82 4.78-26.070 4.78-39.52s-1.66-26.55-4.78-39.15c-0.2-0.84-0.42-1.68-0.64-2.51-19.93-76.23-92.86-133.060-174.66-133.66-0.75-0.010-1.5-0.010-2.26-0.010z" />
<glyph unicode="&#xe003;" glyph-name="bhy-bribery" d="M576 537.6h-32v25.6c0 0 0 0 0 0h32c19.2 0 32 12.8 32 32s-12.8 32-32 32h-19.2l38.4 38.4c12.8 12.8 12.8 32 0 44.8s-32 12.8-44.8 0l-38.4-44.8-38.4 44.8c-12.8 12.8-32 12.8-44.8 0s-12.8-32 0-44.8l38.4-38.4h-19.2c-19.2 0-32-12.8-32-32s12.8-32 32-32h38.4c0 0 0 0 0 0v-25.6h-38.4c-19.2 0-32-12.8-32-32s12.8-32 32-32h38.4v-44.8c0-19.2 12.8-32 32-32s32 12.8 32 32v44.8h25.6c19.2 0 32 12.8 32 32s-12.8 32-32 32zM742.4 524.8c-19.2-108.8-115.2-192-230.4-192-108.8 0-204.8 76.8-224 179.2l-160 96v-486.4c0-70.4 57.6-121.6 121.6-121.6h524.8c70.4 0 121.6 57.6 121.6 121.6v492.8l-153.6-89.6zM512 793.6c108.8 0 198.4-76.8 224-179.2l160 102.4v57.6c0 70.4-57.6 121.6-121.6 121.6h-524.8c-64 0-121.6-51.2-121.6-121.6v-70.4l160-96c19.2 108.8 115.2 185.6 224 185.6z" />
<glyph unicode="&#xe004;" glyph-name="bhy-msg-voice" d="M264 651.648c-19.408 15.664-49.408 14.352-67.008-2.96-17.584-17.296-16.096-44.032 3.312-59.744 44.448-35.92 69.952-87.328 69.952-141.040 0-53.648-25.568-105.088-70.192-141.136-10.336-8.352-15.568-19.824-15.568-31.344 0-10.128 4.048-20.304 12.304-28.4 17.6-17.296 47.6-18.608 67.008-2.912 64.384 52.064 101.312 126.336 101.312 203.792 0 77.552-36.848 151.808-101.12 203.744zM443.84 791.008c-18.48 16.56-48.512 16.64-67.088 0.16-18.576-16.432-18.624-43.248-0.192-59.808 84.384-75.664 130.88-176.304 130.88-283.456 0-106.96-46.56-207.584-131.104-283.376-9.2-8.24-13.808-19.040-13.808-29.808 0-10.864 4.656-21.728 13.984-29.984 18.576-16.48 48.592-16.4 67.088 0.16 102.352 91.728 158.72 213.552 158.72 343.008 0 129.648-56.304 251.504-158.48 343.104zM622.112 930.992c-18.128 16.848-48.16 17.408-67.072 1.232-18.928-16.176-19.52-42.944-1.392-59.792 123.152-114.464 190.976-265.232 190.976-424.512 0-158.976-67.92-309.68-191.216-424.368-8.8-8.192-13.184-18.72-13.184-29.264 0-11.104 4.88-22.224 14.608-30.544 18.896-16.144 48.944-15.584 67.072 1.28 140.304 130.512 217.568 302 217.568 482.88 0.032 181.232-77.184 352.784-217.36 483.088z" />
<glyph unicode="&#xe005;" glyph-name="bhy-tips-01" d="M512 897.143c-248.165 0-449.389-201.156-449.389-449.389s201.156-449.389 449.389-449.389 449.389 201.224 449.389 449.389-201.224 449.389-449.389 449.389zM682.787 447.010c-15.489-23.268-34.089-44.438-50.593-61.957-31.52-34.089-65.068-66.083-96.046-95.573-7.237-6.697-15.489-10.349-24.282-10.349-10.349 0-18.601 5.14-22.185 8.252l-2.097 2.097c-1.555 1.555-3.111 3.111-4.667 4.667l-18.059 17.586c-18.601 18.059-37.201 36.66-55.802 55.261-26.853 27.867-47.482 51.676-64.054 74.875-15.489 21.711-23.268 43.356-23.268 66.083 0 38.757 17.045 69.194 51.135 90.905 28.408 18.059 59.387 22.185 90.905 11.904 17.586-5.681 33.075-17.045 48.023-35.646 5.14 5.681 9.807 10.822 15.489 16.030 17.586 16.504 40.786 25.297 65.609 25.297 19.142 0 38.215-5.14 55.261-15.489 29.963-17.586 47.482-42.883 52.69-74.335 4.196-27.459-1.486-54.312-18.057-79.609z" />
<glyph unicode="&#xe006;" glyph-name="bhy-tips-02" d="M512-64c282.77 0 512 229.23 512 512s-229.23 512-512 512c-282.77 0-512-229.23-512-512s229.23-512 512-512zM469.333 192c0 23.564 18.938 42.667 42.667 42.667 23.564 0 42.667-18.938 42.667-42.667 0-23.564-18.938-42.667-42.667-42.667-23.564 0-42.667 18.938-42.667 42.667zM469.333 704.196c0 23.456 18.938 42.47 42.667 42.47 23.564 0 42.667-19.442 42.667-42.47v-341.726c0-23.456-18.938-42.47-42.667-42.47-23.564 0-42.667 19.442-42.667 42.47v341.726z" />
<glyph unicode="&#xe101;" glyph-name="bhy-idt" d="M887.878 768.057h-377.047v-593.496h377.047c38.4 0 69.822 31.42 69.822 69.821v453.853c0 38.402-31.423 69.822-69.822 69.822v0zM865.181 310.716h-307.215c-11.524 0-20.946 9.426-20.946 20.946s9.422 20.946 20.946 20.946h307.215c11.525 0 20.956-9.426 20.956-20.946s-9.431-20.946-20.956-20.946v0zM865.181 450.364h-307.215c-11.524 0-20.946 9.424-20.946 20.944s9.422 20.946 20.946 20.946h307.215c11.525 0 20.956-9.426 20.956-20.946 0-11.519-9.431-20.944-20.956-20.944v0zM865.181 590.010h-307.215c-11.524 0-20.946 9.425-20.946 20.944 0 11.521 9.422 20.946 20.946 20.946l307.215 0.002c11.525 0 20.956-9.426 20.956-20.948 0-11.518-9.431-20.944-20.956-20.944zM510.83 768.057h-377.047c-38.4 0-69.823-31.422-69.823-69.824v-453.851c0-38.403 31.424-69.821 69.823-69.821h377.046v593.496h0.001zM471.907 305.737c-0.963-5.582-2.357-9.859-4.192-12.653-1.222-1.829-4.881-3.751-10.996-5.586-6.114-1.831-13.618-3.58-22.697-5.144-9.075-1.577-19.019-3.058-29.928-4.456-10.913-1.395-21.915-2.617-32.999-3.489-11.085-0.958-21.73-1.743-32.119-2.357-10.298-0.612-19.372-0.96-27.143-0.96-7.768 0-16.755 0.348-26.968 0.96-10.127 0.614-20.687 1.399-31.6 2.357-10.908 0.958-21.73 1.921-32.285 3.055-10.654 1.134-20.339 2.358-29.242 3.756-8.903 1.394-16.411 2.792-22.52 4.189-6.11 1.392-9.951 2.699-11.432 4.014-2.529 2.181-4.539 8.726-6.108 19.638-1.571 10.908-1.136 24.962 1.398 42.155 1.57 9.947 5.498 17.455 11.955 22.515 6.369 4.978 13.965 9.078 22.696 12.133 8.727 3.141 17.713 5.846 26.964 8.203 9.255 2.357 17.366 5.846 24.615 10.561 5.586 3.756 9.95 7.159 12.914 10.299 2.973 3.142 5.155 6.284 6.549 9.34 1.395 3.144 2.094 6.372 2.094 9.864 0 3.402-0.171 7.332-0.435 11.695-0.612 6.282-2.794 11.17-6.55 14.75-3.747 3.58-7.764 7.071-12.215 10.559-2.182 1.834-4.099 4.538-5.85 7.945-1.742 3.399-3.229 6.893-4.451 10.295-1.223 3.753-2.53 7.944-3.752 12.656-1.834 0.611-3.752 1.575-5.586 2.793-1.57 1.224-3.223 3.146-4.886 5.587-1.742 2.532-3.318 5.935-4.882 10.3-1.575 4.363-2.186 8.464-1.839 12.393 0.348 3.925 1.135 7.070 2.358 9.602 1.223 3.14 2.969 5.931 5.151 8.463-0.348 9.951 0.171 20.162 1.394 30.463 1.224 8.729 3.23 17.891 5.85 27.404 2.617 9.516 6.809 18.328 12.395 26.445 4.97 7.505 10.643 13.618 16.839 18.24 6.289 4.713 12.657 8.379 19.203 11 6.545 2.618 13.090 4.449 19.635 5.409 6.55 0.963 12.835 1.398 18.764 1.398 15.888 0 30.117-3.317 42.595-9.862 12.483-6.546 21.734-13.616 27.667-21.036 6.892-8.464 11.955-17.889 15.184-28.365 3.317-10.47 5.673-20.248 7.248-29.24 1.575-10.644 2.182-21.206 1.83-31.856 1.576-1.223 2.965-2.967 4.191-5.148 0.959-1.833 1.835-4.278 2.618-7.245 0.788-2.966 0.871-6.631 0.264-10.995-0.611-5.585-1.835-10.127-3.757-13.616-1.83-3.406-3.747-6.111-5.582-7.944-2.182-2.182-4.711-3.58-7.509-4.189-1.223-4.711-2.534-8.902-3.747-12.656-1.228-3.402-2.798-6.896-4.715-10.295-1.835-3.408-3.933-5.937-6.115-7.51-2.533-2.182-4.798-4.014-6.808-5.583-2.006-1.572-3.835-3.23-5.41-4.886-1.57-1.749-2.878-3.667-4.011-5.847-1.135-2.183-1.922-4.804-2.622-7.944-0.607-4.104-0.871-8.204-0.695-12.394 0.176-4.188 1.135-8.376 3.053-12.392 1.831-4.013 4.887-7.943 9.167-11.696 4.187-3.751 10.038-6.981 17.542-9.864 6.545-2.793 13.79-5.236 21.734-7.245 7.94-2.007 15.624-4.449 22.952-7.245 7.333-2.791 13.877-6.372 19.639-10.734 5.762-4.365 9.95-9.948 12.395-16.843 1.218-4.363 2.27-9.692 3.053-15.886 0.783-6.281 1.135-12.567 1.135-18.94 0.004-6.632-0.432-12.652-1.391-18.33z" />
<glyph unicode="&#xe102;" glyph-name="bhy-edit" d="M509.148 890.904c-246.315 0-445.186-198.872-445.186-445.187 0-246.311 198.872-445.187 445.186-445.187 246.312 0 445.184 198.876 445.184 445.187 0 246.316-198.872 445.187-445.184 445.187v0zM563.88 688.382c27.37 25.543 71.159 25.543 98.53 0l23.719-23.719c27.37-25.544 27.37-67.504 0-93.051l-29.191-27.367-124.074 118.594 31.015 25.544zM510.97 635.471l124.069-118.595-202.524-189.753-122.242 114.944 200.697 193.404zM233.642 372.739l51.083 49.263 124.073-114.951-32.846-32.842h-142.31v98.53zM759.108 188.46h-503.573c-10.95 0-21.893 9.123-21.893 21.896 0 10.945 9.119 21.893 21.893 21.893h501.749c10.949 0 21.893-9.123 21.893-21.893 0-12.773-7.299-21.896-20.068-21.896v0zM759.108 270.561h-260.905c-10.946 0-21.9 9.123-21.9 21.893 0.007 10.949 9.126 21.9 21.9 21.9h260.905c10.945 0 21.893-9.127 21.893-21.9-0.001-12.77-9.124-21.893-21.893-21.893zM509.148 890.904c-246.315 0-445.186-198.875-445.186-445.187s198.872-445.187 445.186-445.187v187.93h-253.613c-10.95 0-21.893 9.123-21.893 21.896 0 10.945 9.119 21.893 21.893 21.893h253.613v38.313h-10.945c-10.946 0-21.9 9.123-21.9 21.893 0.007 10.949 9.126 21.9 21.9 21.9h10.945v84.567l-76.633-71.797-122.242 114.944 198.875 191.641v257.197zM233.642 372.739l51.083 49.263 124.073-114.951-32.846-32.842h-142.31v98.53z" />
<glyph unicode="&#xe103;" glyph-name="bhy-picture" d="M63.96 665.806v-491.788c0-45.891 9.291-54.643 54.636-54.643h619.298c44.973 0 54.64 8.379 54.64 54.643v491.788c0 44.806-8.574 54.64-54.645 54.64l-619.294 0.004c-45.175 0-54.636-7.823-54.636-54.645v0zM706.745 246.878h-556.619c60.83 88.706 169.015 236.603 196.511 236.603 26.609 0 116.935-119.497 157.739-161.562 0 0 52.476 70.118 79.967 70.118 28.041-0.001 121.489-144.436 122.403-145.159v0zM543.186 556.518c0 37.159 30.041 67.206 67.201 67.206s67.203-30.046 67.203-67.206c0-37.155-30.043-67.202-67.203-67.202s-67.201 30.047-67.201 67.202v0zM405.643 753.415l-106.527 20.213c-35.364 6.712-49.376 4.293-58.029-20.216l164.556 0.003zM907.538 658.168c45.267-8.592 51.851-19.851 43.501-63.877l-91.692-483.16c-8.629-45.455-19.68-51.881-63.875-43.497l-106.996 20.309h50.28c22.577 0 48.135 1.447 65.783 18.741 18.143 17.778 19.659 43.752 19.659 66.697v494.585c0 1.983-0.010 3.998-0.046 6.023l83.386-15.821zM63.96 665.806v-491.788c0-45.891 9.291-54.643 54.636-54.643h390.449v127.504h-358.919c60.83 88.706 169.015 236.603 196.511 236.603 26.609 0 116.935-119.497 157.739-161.562 0 0 1.709 2.292 4.67 6.028v392.497h-390.449c-45.176 0-54.637-7.819-54.637-54.64v0zM405.643 753.412l-106.527 20.216c-35.364 6.715-49.376 4.293-58.029-20.216h164.556z" />
<glyph unicode="&#xe104;" glyph-name="bhy-marr" d="M509.146 890.904c-245.867 0-445.186-199.319-445.186-445.186 0-245.871 199.319-445.186 445.186-445.186 245.871 0 445.189 199.315 445.189 445.186 0 245.868-199.319 445.186-445.189 445.186v0zM738.252 292.37c-9.556-22.708-21.782-44.005-37.12-63.232-38.711-48.507-87.623-82.257-147.683-98.867-68.114-18.826-134.631-13.437-197.909 17.816-79.678 39.345-129.838 103.298-150.010 189.894-14.81 63.63-6.788 125.223 21.041 184.069 7.629 16.133 17.642 31.142 23.631 41.574 58.907 76.459 131.296 115.568 221.86 120.574 12.951 0.716 23.112-7.87 24.283-20.324 1.185-12.578-7.564-22.984-20.586-24.681-16.031-2.087-32.324-3.090-48.022-6.691-45.313-10.397-84.117-32.74-116.504-66.262-85.256-88.24-91.255-225.117-11.755-318.18 54.121-63.353 124.466-90.23 207.468-81.026 55.781 6.178 104.048 30.018 142.041 71.113 63.52 68.713 82.389 148.909 55.799 239.157-2.636 8.962-1.434 17.077 5.006 23.791 5.784 6.039 13.228 8.47 21.481 6.333 8.093-2.097 13.749-7.213 16.336-15.357 21.504-67.716 18.165-134.294-9.358-199.7v0zM804.592 645.679c-3.151-23.443-6.224-46.9-9.452-70.332-1.94-14.061-8.576-20.633-22.622-22.878-62.74-10.023-125.482-20.061-188.227-30.075-17.748-2.831-27.441 4.251-30.121 22.116-9.485 63.005-18.926 126.017-28.354 189.029-2.051 13.732 2.623 22.094 15.023 27.91 20.445 9.59 40.932 19.121 61.2 29.092 11.007 5.415 20.573 5.070 30.727-2.586 26.423-19.931 53.347-39.204 80.068-58.74 27.154-19.855 54.238-39.814 81.508-59.489 8.48-6.113 11.592-13.998 10.25-24.047zM754.382 643.132c-7.597 5.287-14.981 10.869-22.452 16.335-7.327 5.358-14.654 10.726-21.992 16.067-5.808 4.225-5.908 4.215-10.027-1.395-6.746-9.186-13.433-18.404-20.183-27.58-8.079-10.967-21.715-13.611-31.909-6.227-10.446 7.571-12.373 21.661-4.393 32.7 6.885 9.517 13.7 19.089 20.86 28.403 2.881 3.753 2.403 5.883-1.355 8.569-15.059 10.762-29.982 21.715-44.838 32.764-3.093 2.31-5.741 2.708-9.243 0.983-10.528-5.187-21.129-10.24-31.834-15.052-3.584-1.607-4.449-3.661-3.874-7.419 7.419-48.564 14.753-97.138 21.945-145.734 0.657-4.446 2.367-5.525 6.654-4.776 14.025 2.455 28.108 4.577 42.174 6.826 34.267 5.489 68.526 11.046 102.822 16.386 4.251 0.663 6 2.253 6.464 6.638 1.211 11.496 2.849 22.943 4.556 34.378 0.542 3.608-0.305 6.003-3.374 8.132zM509.146 890.904c-245.867 0-445.186-199.319-445.186-445.186 0-245.871 199.319-445.186 445.186-445.186v120.897c-52.662-6.404-104.124 2.219-153.607 26.658-79.678 39.345-129.838 103.298-150.010 189.894-14.81 63.63-6.788 125.223 21.041 184.069 7.629 16.133 17.642 31.142 23.631 41.574 58.907 76.459 131.296 115.568 221.86 120.574 12.951 0.716 23.112-7.87 24.283-20.324 1.185-12.578-7.564-22.984-20.586-24.681-16.031-2.087-32.324-3.090-48.022-6.691-45.313-10.397-84.117-32.74-116.504-66.262-85.256-88.24-91.255-225.117-11.755-318.18 54.121-63.353 124.466-90.23 207.468-81.026 0.739 0.078 1.466 0.167 2.2 0.252v723.619z" />
<glyph unicode="&#xe105;" glyph-name="bhy-edu" d="M509.147 5.605l320.398 181.39-86.406 302.412-233.992-126.975-233.992 126.975-86.395-302.412 320.387-181.39zM932.262 334.184h-1.924l-41.521-21.767v306.034l-379.187-206.011-445.67 241.772 445.187 241.766 445.191-241.766-64.804-35.244 42.727-284.785zM509.147 5.605l0.483 0.27v356.816l-0.483-0.259-233.992 126.975-86.395-302.412 320.387-181.39zM509.63 895.72v-483.28l-445.67 241.772 445.187 241.766 0.483-0.259z" />
<glyph unicode="&#xe106;" d="M876.966 532.822l-366.137 335.914c-1.983 2.728-4.265 5.372-6.912 7.852-3.023 2.839-6.247 5.272-9.587 7.284l-1.317 1.195c-4.854 4.471-11.744 6.302-19.299 5.738-7.557 0.564-14.441-1.267-19.323-5.738l-1.288-1.195c-3.371-2.012-6.592-4.449-9.615-7.284-2.65-2.48-4.907-5.131-6.887-7.852l-366.158-335.914c-11.304-10.367-7.437-30.975 8.594-46.030 16.027-15.055 38.2-18.84 49.497-8.483l345.182 316.671 345.157-316.671c11.293-10.357 33.469-6.572 49.5 8.483 16.053 15.055 19.892 35.662 8.594 46.030v0z" />
<glyph unicode="&#xe107;" d="M190.321 472.467v-303.004h205.228v227.917h154.197v-166.751h15.931l135.073 102.617h56.359v139.221l-278.039 257.953z" />
<glyph unicode="&#xe108;" d="M473.715 890.805c-7.557 0.564-14.441-1.267-19.323-5.738l-1.288-1.195c-3.371-2.012-6.592-4.449-9.615-7.284-2.65-2.48-4.907-5.131-6.887-7.852l-366.159-335.915c-11.304-10.367-7.437-30.975 8.594-46.030 16.027-15.058 38.2-18.84 49.497-8.483l345.182 316.671v95.825z" />
<glyph unicode="&#xe109;" d="M190.321 472.467v-303.004h205.228v227.917h78.166v328.26z" />
<glyph unicode="&#xe10a;" d="M250.126 90.845l210.535-0.394c0 0 6.043-0.982 13.053-5.83v-83.989c-91.699-0.279-195.292 0.103-195.292 0.103s-52.801 0.109-54.384 43.398c-1.581 20.366 8.797 45.722 26.087 46.711v0z" />
<glyph unicode="&#xe201;" glyph-name="bhy-member-menu-01" d="M551.479 135.712c0-77.093-59.13-37.292-59.13-37.292l-256.047 215.42h-39.545c-24.503 0-44.348 20.213-44.348 45.147v180.546c0 24.939 19.845 45.141 44.348 45.141h47.299l248.293 210.636c0 0 59.135 40.125 59.135-37.611v-621.991h-0.005v0.005zM684.494 328.896c73.91 60.179 68.978 174.284 0 225.688-27.087 16.292-44.333-37.619-44.333-37.619s68.968-86.515 0-150.458c-13.556-17.555 12.315-53.917 44.333-37.611v0 0zM721.449 682.468c-9.855 8.784-57.884-23.823-29.558-52.653 146.565-124.135 149.022-240.74 0-368.629-22.178-21.313 7.378-61.448 29.558-52.653 203.214 94.042 194.61 386.17 0 473.934v0 0z" />
<glyph unicode="&#xe202;" glyph-name="bhy-member-menu-02" d="M910.001 497.894c-50.55 78.534-113.946 137.262-190.178 176.188 20.316-34.625 30.472-72.059 30.472-112.306 0-61.541-21.87-114.201-65.608-157.982-43.737-43.781-96.399-65.65-157.981-65.606-61.583 0.042-114.244 21.91-157.981 65.606-43.738 43.695-65.607 96.357-65.607 157.982 0 40.246 10.158 77.681 30.471 112.306-76.19-38.926-139.583-97.655-190.178-176.188 44.25-68.226 99.719-122.548 166.414-162.965 66.693-40.415 138.985-60.624 216.88-60.624s150.188 20.208 216.881 60.624c66.697 40.417 122.168 94.739 166.417 162.965v0zM550.662 689.541c0 6.643-2.322 12.307-6.963 16.992-4.642 4.685-10.307 7.006-16.992 6.964-41.609 0-77.299-14.885-107.068-44.654s-44.654-65.458-44.654-107.066c0-6.644 2.321-12.307 6.964-16.993 4.643-4.684 10.307-7.008 16.992-6.965s12.349 2.367 16.992 6.965c4.642 4.6 6.964 10.265 6.964 16.993 0 28.62 10.158 53.065 30.472 73.337s44.76 30.429 73.337 30.472c6.643 0 12.308 2.321 16.992 6.963 4.687 4.643 7.007 10.307 6.964 16.993zM973.885 497.894c0-11.328-3.322-22.805-9.966-34.431-46.591-76.531-109.216-137.837-187.878-183.918-78.662-46.079-161.751-69.121-249.271-69.12-87.518 0-170.61 23.126-249.269 69.376-78.66 46.248-141.286 107.469-187.877 183.66-6.644 11.627-9.966 23.104-9.966 34.432s3.322 22.805 9.966 34.432c46.591 76.191 109.217 137.412 187.879 183.662 78.66 46.251 161.75 69.376 249.269 69.376s170.61-23.126 249.271-69.376c78.66-46.25 141.285-107.471 187.878-183.662 6.642-11.626 9.964-23.103 9.964-34.431z" />
<glyph unicode="&#xe203;" glyph-name="bhy-member-menu-03" d="M572.524 786.802c-58.199 0-104.837-20.927-145.922-62.076-0.062 0-0.062 0-0.062-0.064h-0.067l-23.381-29.455-23.381 27.646c0 0.066 0 0.066-0.065 0.13v0 0c-41.148 41.084-87.721 63.756-145.921 63.756-58.137 0-112.914-22.672-153.997-63.756-41.147-41.147-63.82-95.859-63.82-153.994 0-58.14 22.673-112.849 63.691-153.932l289.13-291.584c9.108-9.106 21.511-14.277 34.366-14.277 12.921 0 25.322 5.17 34.364 14.277l85.721 86.491c0 0-72.735 62.467-144.243 149.283-27.001 42.627-54.454 129.058-30.294 192.555 24.222 63.563 60.009 124.542 176.731 141.467 116.723 16.859 168.144-53.743 168.144-53.743s15.113 19.184 65.178 42.631c-8.982 14.665-19.706 28.357-32.169 40.825-41.147 41.149-95.865 63.82-153.999 63.82v0 0zM831.163 659.744c-47.281 0-85.201-16.988-118.595-50.384 0-0.065 0-0.065-0.062-0.065v0l-18.993-23.964-19.055 22.542c-33.459 33.459-71.319 51.871-118.535 51.871-47.277 0-91.726-18.411-125.184-51.871-33.396-33.395-51.806-77.837-51.806-125.12s18.345-91.664 51.74-125.122l234.934-236.809c7.364-7.491 17.443-11.626 27.905-11.626s20.543 4.201 27.905 11.626l234.932 236.809c33.397 33.457 51.741 77.838 51.741 125.122 0 47.283-18.41 91.724-51.806 125.12-33.455 33.459-77.835 51.871-125.121 51.871v0 0z" />
<glyph unicode="&#xe204;" glyph-name="bhy-member-menu-04" d="M160.558 171.407c82.111-103.159 208.754-169.292 350.851-169.292 143.028 0 270.405 66.999 352.466 171.322-1.845 0.507-3.695 1.002-5.561 1.47-211.404 53.251-206.809 90.293-206.809 90.293s71.492-14.494 125.148 4.236c70.925 24.785 32.361 123.496 32.361 123.496 45.995 5.106 23 58.736-11.091 100.471-34.010 41.729-53.207 214.168-110.688 320.182-41.037 75.661-158.383 82.608-183.075 82.608-24.69 0-87.714 4.252-147.329-61.313-59.618-65.559-88.558-225.666-96.223-275.895-7.665-50.247-67.275-126.895-66.418-146.495 0.861-19.558 23.853-27.23 23.853-27.23-6.808-20.427-21.302-58.752 17.881-96.226 39.175-37.484 152.416-25.551 152.416-25.551-27.537-39.767-130.577-63.076-227.784-92.078z" />
<glyph unicode="&#xe205;" glyph-name="bhy-member-menu-05" d="M803.963 545.546h-64.43v114.893c0 124.211-101.99 207.401-227.492 207.401s-227.615-84.296-227.615-208.507v-113.766h-64.369c-31.068-0.020-56.218-24.904-56.218-55.644v-406.077c0-30.781 25.149-55.685 56.197-55.685h583.967c31.048 0 56.136 24.904 56.136 55.685v406.077c0.020 30.74-25.129 55.624-56.177 55.624zM543.58 276.296v-88.678c0-3.953-3.318-7.291-7.373-7.291h-48.312c-4.116 0-7.434 3.338-7.434 7.291v88.678c-22.692 11.489-38.42 34.509-38.42 61.522 0 38.195 31.334 69.263 69.919 69.263 38.646 0 69.98-31.068 69.98-69.263 0.061-26.993-15.647-50.033-38.359-61.522zM652.227 544.195h-280.371v123.74c0 65.454 62.956 118.743 140.247 118.743s140.124-53.289 140.124-118.743v-123.74z" />
<glyph unicode="&#xe206;" glyph-name="bhy-member-menu-06" d="M515.938-12.8c0 0-393.058 136.512-393.058 377.027v404.928l393.058 139.645 393.058-139.645v-404.928c0-240.515-393.058-377.027-393.058-377.027v0zM679.427 591.839l-196.182-195.517-107.675 107.297-65.386-65.157 173.061-172.454 261.568 260.652-65.386 65.18z" />
<glyph unicode="&#xe207;" glyph-name="bhy-member-menu-07" d="M932.057 828.872l-75.353 65.319-16.015-7.878c-161.054-79.221-290.737-14.35-315.105-0.531l-13.259 7.511-13.286-7.521c-24.35-13.809-153.991-78.698-315.046 0.541l-16.039 7.878-75.36-65.336 9.234-18.65c11.522-23.227 49.099-103.804 49.099-165.048 0-13.768-4.908-38.6-10.59-67.349-10.131-51.361-22.694-115.001-22.694-178.874 0-125.005 50.18-205.55 149.15-239.391 155.455-53.139 206.576-101.806 223.204-126.079l22.146-32.346 22.212 32.311c16.703 24.259 67.947 72.942 223.514 126.115 98.953 33.841 149.133 114.386 149.133 239.391 0 64.239-13.128 130.508-22.695 178.881 0.008-0.025-0.174 0.873-0.174 0.873-5.59 28.394-10.417 52.925-10.417 66.469 0 61.111 37.592 141.796 49.115 165.072l9.227 18.644zM869.733 813.347c-16.939-37.043-45.341-108.178-45.341-168.191 0-18.343 5-43.758 11.324-76.002l0.184-0.881c9.699-48.974 21.76-109.91 21.76-169.341 0-104.458-36.778-165.701-115.758-192.687-106.432-36.405-182.659-76.669-226.539-119.677l-3.138-3.095-3.144 3.095c-43.808 43.042-119.95 83.289-226.325 119.677-78.989 26.986-115.783 88.229-115.783 192.687 0 59.057 12.046 120.067 21.729 169.123 6.456 32.702 11.556 58.517 11.556 77.101 0 60.112-28.393 131.189-45.314 168.191l-1.397 3.062 22.344 19.367 2.604-1.156c155.806-69.206 283.985-22.070 331.858 1.422l1.981 0.965 1.955-0.965c47.901-23.476 176.096-70.62 331.876-1.422l2.604 1.156 22.353-19.367-1.391-3.062zM278.021 275.836v275.168h-43.568v45.861h107.775v-227.015c13.759 6.091 26.73 14.511 38.983 25.225v-50.449c-29.058-30.597-63.454-53.493-103.19-68.79zM294.073 640.434c-6.127 36.689-17.592 74.883-34.395 114.654h57.327c19.849-33.643 32.855-71.874 38.982-114.654h-61.913zM360.573 234.559v48.154c27.517 29.023 39.734 76.425 36.689 142.173v252.237h183.446c0 25.977 0 55.035 0 87.136h64.206c-1.541-32.101-2.293-61.159-2.293-87.136h43.569v75.672h50.446v-75.672h32.104v-48.155h-123.827c0-70.332 3.798-136.832 11.466-199.497 21.39 47.367 37.441 100.895 48.154 160.515h59.62c-21.425-103.977-52.741-183.446-94.016-238.48 10.677-41.275 25.976-62.665 45.862-64.206 13.759-1.505 20.636 11.466 20.636 38.982h41.276c0-59.619-20.637-88.64-61.912-87.136-38.23 0-68.040 21.425-89.43 64.206-22.932-19.849-50.448-41.276-82.551-64.206v50.447c25.976 21.391 48.155 43.569 66.499 66.499-1.541 6.092-3.834 16.804-6.879 32.104-1.541 9.171-3.081 16.051-4.587 20.637-9.172 62.667-14.546 136.044-16.051 220.135h-123.824v-71.085h103.188v-190.326c1.505-45.861-19.886-68.039-64.207-66.497h-34.396v45.861h16.052c18.344 0 26.729 8.385 25.223 25.223v139.877h-45.861v-75.673c3.045-96.308-29.811-163.56-98.602-201.789z" />
<glyph unicode="&#xe208;" glyph-name="bhy-member-menu-08" d="M215.296 559.232c0.64 1.792 1.28 3.584 1.92 5.376 4.864 14.592 17.664 24.448 33.28 25.472 14.208 1.024 28.416-7.296 35.072-20.352 6.784-13.312 4.864-29.056-4.992-40.704-1.152-1.28-2.304-2.56-3.584-4.096 27.52-16.896 54.912-33.536 82.176-50.304 10.368-6.4 20.736-12.8 31.104-18.944 5.888-3.456 10.496-2.432 13.696 3.328 31.36 57.088 62.72 114.304 94.336 172.032-13.696 6.912-22.528 17.536-23.296 33.28-0.512 11.008 3.328 20.48 11.136 28.16 15.488 15.104 40.96 13.696 54.528-3.072 15.616-19.2 9.984-41.6-14.848-58.496 8.064-14.848 16.256-29.696 24.448-44.544 22.784-41.472 45.44-82.816 68.224-124.288 5.248-9.6 8.576-10.496 17.92-4.864 35.2 21.504 70.4 43.136 105.6 64.64 1.664 1.024 3.2 2.048 5.12 3.2-7.296 7.296-11.904 15.488-12.416 25.6-1.024 18.944 12.032 35.584 30.336 38.656 19.072 3.328 36.736-7.552 42.368-25.984 0.384-1.408 1.024-2.944 1.536-4.352v-12.8c-6.016-19.2-18.304-30.336-39.424-30.464-0.768-2.176-1.536-4.352-2.176-6.528-20.608-70.656-41.216-141.44-61.824-212.096-2.688-9.216-5.888-11.648-15.232-11.648-118.656 0-237.184 0-355.84 0-9.984 0-13.056 2.304-15.744 11.648-16.768 57.344-33.408 114.816-50.176 172.16-4.48 15.488-9.088 30.976-13.696 46.592-15.744 0-27.648 6.272-35.072 19.84-1.792 3.328-2.944 7.040-4.352 10.624-0.128 4.48-0.128 8.704-0.128 12.928v0zM512 248.576c55.424 0 110.848 0 166.272 0 14.848 0 26.624-10.496 28.288-24.576 1.664-14.208-7.68-27.136-22.016-30.336-2.048-0.512-4.224-0.64-6.272-0.64-110.848 0-221.696 0-332.672 0-12.672 0-23.296 7.552-27.008 18.944-3.84 11.392-0.256 24.32 9.856 30.848 5.248 3.328 12.16 5.632 18.304 5.632 55.168 0.384 110.208 0.128 165.248 0.128v0 0z" />
<glyph unicode="&#xe209;" glyph-name="bhy-member-menu-09" d="M831.723-64h-575.842c-70.667 0-127.956 57.293-127.956 127.964v639.79l383.89-127.964h63.976l383.896 127.964v-639.79c0-70.671-57.295-127.964-127.964-127.964zM577.351 257.911l92.863 0.224c23.258-0.224 31.543 11.837 31.971 26.373 0.358 12.61-11.556 36.372-32.534 36.941h-92.831v22.393c0 0 70.463 71.964 88.749 88.547 18.228 16.66 22.835 29.706 11.568 43.179-11.421 13.749-31.556 12.898-46.297 0.697-14.959-12.399-86.919-79.251-86.919-79.251s-61.774 63.794-75.147 76.627c-12.009 11.561-37.5 22.763-51.218 7.236-14.313-16.232-3.187-36.506 5.778-45.374 8.938-8.784 86.241-90.518 86.241-90.518l-0.141-24.593c0 0-82.549 0-96.868 0s-26.968-25.476-26.514-39.015c0.46-13.468 11.306-24.030 26.482-24.030 15.17 0 96.581 0.563 96.581 0.563l-0.211-68.592c0 0-86.017 0-100.336 0s-26.335-14.42-26.911-27.959c-0.563-13.544 10.704-31.893 26.911-31.893 16.232 0 100.118 0 100.118 0s-0.173-23.468 0.429-33.243c1.35-21.829 15.67-30.762 34.806-31.12 19.144-0.364 32.727 15.656 32.682 29.981-0.065 11.837-0.346 34.382-0.346 34.382s83.323 0.147 99.063 0c15.739-0.134 27.506 15.797 26.866 31.893-0.563 16.161-10.346 28.522-34.236 28.522-23.897 0-91.129 0-91.129 0l0.531 68.031zM575.79 639.776h-63.976l-383.89 127.951c0 70.678 57.289 127.958 127.956 127.958h575.842c70.667 0 127.964-57.281 127.964-127.958l-383.896-127.951z" />
<glyph unicode="&#xe210;" glyph-name="bhy-member-menu-10" d="M622.763 784.966c0-61.187-49.578-110.765-110.764-110.765-61.154 0-110.732 49.578-110.732 110.765 0 61.153 49.578 110.731 110.732 110.731 61.186 0 110.764-49.578 110.764-110.731zM622.763 0.304h-221.527l33.576 609.99h154.376z" />
<glyph unicode="&#xe211;" glyph-name="bhy-member-menu-11" d="M622.542 255.776c-7.069-9.922-14.425-19.397-22.298-27.833 0.071-0.983 0.573-1.821 0.573-2.823v-89.387c0-24.682-20.012-44.693-44.697-44.693h-89.383c-24.682 0-44.693 20.012-44.693 44.693v89.387c0 1.002 0.502 1.84 0.57 2.823-7.87 8.436-15.226 17.911-22.295 27.833-66.854 38.623-112.356 110.050-112.356 192.811 0 123.417 100.050 223.467 223.471 223.467 123.41 0 223.468-100.050 223.468-223.467-0.001-82.761-45.514-154.189-112.36-192.811zM489.083 46.347h44.693c12.339 0 22.343-10.004 22.343-22.347s-10.004-22.347-22.343-22.347h-44.693c-12.343 0-22.347 10.004-22.347 22.347s10.004 22.347 22.347 22.347zM913.674 403.894h-89.391c-30.857 0-44.697 14.526-44.697 44.694 0 30.172 13.84 44.693 44.697 44.693h89.391c30.85 0 44.69-14.522 44.69-44.693 0-30.169-13.84-44.694-44.69-44.694zM787.955 651.648c-21.814-21.334-57.193-21.334-79.006 0-21.822 21.334-21.822 55.923 0 77.252l39.502 38.627c21.822 21.33 57.197 21.33 79.010 0 21.814-21.334 21.814-55.919 0-77.252l-39.506-38.627zM511.433 716.748c-30.861 0-44.697 14.526-44.697 44.693v89.387c0 30.168 13.836 44.693 44.697 44.693 30.846 0 44.686-14.526 44.686-44.693v-89.387c0.001-30.167-13.839-44.693-44.686-44.693zM234.897 651.648l-39.498 38.627c-21.822 21.334-21.822 55.919 0 77.252 21.818 21.33 57.188 21.33 79.010 0l39.502-38.627c21.822-21.33 21.822-55.919 0-77.252-21.818-21.334-57.193-21.334-79.015 0zM243.265 448.587c0-30.168-13.836-44.694-44.69-44.694h-89.387c-30.857 0-44.693 14.526-44.693 44.694 0 30.172 13.836 44.693 44.693 44.693h89.387c30.854 0 44.69-14.521 44.69-44.693z" />
<glyph unicode="&#xe212;" glyph-name="bhy-member-woman" d="M614.069 708.658c-88.844 0-160.871-71.987-160.871-160.871 0-88.844 72.027-160.87 160.871-160.87s160.869 72.026 160.869 160.87c-0.001 88.885-72.026 160.871-160.869 160.871zM938.666 960h-853.332c-47.168 0-85.334-38.168-85.334-85.334v-853.333c0-47.083 38.166-85.333 85.334-85.333h853.332c47.125 0 85.334 38.25 85.334 85.333v853.333c0 47.166-38.207 85.334-85.334 85.334zM614.069 306.504c-46.026 0-89.038 12.883-125.634 35.233l-75.466-75.463 80.457-80.456-80.457-80.413-80.415 80.413-80.456-80.413-80.415 80.413 80.415 80.456-80.415 80.454 80.415 80.418 80.456-80.418 75.433 75.436c-22.357 36.589-35.246 79.596-35.246 125.623 0 133.286 108.042 241.285 241.328 241.285 133.288 0 241.326-107.999 241.326-241.285-0.001-133.287-108.039-241.283-241.327-241.283z" />
<glyph unicode="&#xe213;" glyph-name="bhy-member-birthday" d="M785.869 897.61h-547.739c-96.893 0-175.742-73.905-175.742-164.781v-569.714c0-90.82 78.849-164.725 175.742-164.725h547.739c96.947 0 175.74 73.905 175.74 164.781v569.658c0.001 90.877-78.792 164.781-175.74 164.781v0zM898.721 163.171c0-56.2-50.579-101.892-112.85-101.892h-547.74c-62.212 0-112.851 45.691-112.851 101.892v569.658c0 56.2 50.639 101.892 112.851 101.892h547.739c62.216 0 112.85-45.691 112.85-101.892v-569.658h0.001zM314.172 326.388c37.254 0 70.035 16.376 89.902 41.299 23.847-24.923 63.221-41.299 107.925-41.299s84.050 16.376 107.9 41.299c19.891-24.923 52.697-41.299 89.93-41.299 60.665 0 109.903 43.248 109.903 96.605 0 47.534-39.155 86.827-90.587 94.876-6.292 1.1-12.723 1.732-19.316 1.732h-272.92v85.836h-87.923v-85.865h-34.814c-6.596 0-13.052-0.604-19.316-1.732-51.465-8.022-90.59-47.315-90.59-94.874 0-53.331 49.182-96.579 109.906-96.579v0zM511.986 627.996c24.263 0 43.99 19.235 43.99 42.946s-43.99 107.321-43.99 107.321-43.961-83.609-43.961-107.321c0-23.711 19.699-42.946 43.961-42.946v0zM390.661 623.866c21.235 0 38.501 16.834 38.501 37.588s-38.501 93.93-38.501 93.93-38.476-73.177-38.476-93.93c0-20.754 17.241-37.588 38.476-37.588v0zM642.624 623.866c21.235 0 38.501 16.834 38.501 37.588s-38.501 93.93-38.501 93.93-38.476-73.177-38.476-93.93c0-20.754 17.241-37.588 38.476-37.588v0zM618.966 328.394c-23.932-27.117-62.784-44.953-106.966-44.953s-83.034 17.807-106.963 44.953c-21.461-26.925-58.939-44.953-101.881-44.953-40.969 0-77.016 16.376-98.888 41.271v-99.656c0-59.266 49.182-107.321 109.906-107.321h395.657c60.665 0 109.903 48.055 109.903 107.321v99.713c-21.869-24.923-57.948-41.327-98.941-41.327-42.92 0-80.397 18.027-101.826 44.952v0zM475.102 616.599h87.923v-111.249h-87.923v111.249zM598.674 605.438h87.923v-90.149h-87.923v90.149z" />
<glyph unicode="&#xe214;" glyph-name="bhy-member-zuji-01" d="M870.459 509.269c29.834-136.378-57.383-278.024-231.805-203.646-143.275 105.643-302.21 85.758-405.561 26.507-101.731-50.985-198.889 7.516-215.882 79.655-37.235 141.807 55.235 230.22 263.358 214.549 126.459-12.546 210.583 20.538 295.61 57.437 265.254 100.722 294.28-174.503 294.28-174.502v0 0zM164.135 530.532c-29.113 0.006-52.719-23.285-52.725-52.021-0.005-28.739 52.698-85.496 52.698-85.496s52.727 56.737 52.731 85.474c0.006 28.738-23.589 52.038-52.704 52.043v0zM164.121 452.607c13.923-0.004 25.214 11.282 25.217 25.206 0.002 13.924-11.283 25.215-25.207 25.217-13.923 0.004-25.215-11.282-25.217-25.207-0.002-13.924 11.282-25.213 25.207-25.216zM870.722 322.761c6.544 25.926 39.797 39.815 85.229 28.306 45.416-11.578 61.569-38.033 54.995-63.872-6.59-25.934-33.403-41.478-78.858-29.972-45.428 11.651-67.975 39.683-61.366 65.538v0zM885.008 692.247c1.438-11.458-8.421-22.147-31.636-24.951-23.181-2.786-38.508 4.836-39.905 16.333-1.396 11.503 11.727 22.548 34.921 25.298 23.14 2.837 35.225-5.178 36.615-16.68h0.004zM903.080 431.282c2.619 17.435 26.212 28.397 61.298 23.183 35.097-5.158 49.645-21.617 47.077-39.066-2.559-17.423-21.219-29.104-56.286-23.949-35.147 5.167-54.643 22.456-52.089 39.832v0zM900.553 524.127c-0.249 15.593 19.549 28.456 52.193 28.937 32.536 0.424 48.129-11.878 48.352-27.457 0.245-15.525-15.017-28.377-47.525-28.795-32.617-0.497-52.793 11.82-53.020 27.315v0zM955.629 622.413c2.567-13.309-8.28-26.688-35.458-31.848-27.274-5.197-46.062 2.445-48.592 15.788-2.594 13.325 12.092 27.383 39.356 32.61 27.198 5.154 42.11-3.195 44.693-16.549v0z" />
<glyph unicode="&#xe215;" glyph-name="bhy-member-food" d="M179.978 625.57h663.104c98.426 0 178.956-79.908 178.956-177.571v0c0-97.663-80.53-177.57-178.956-177.57h-663.104c-98.426 0-178.956 79.907-178.956 177.57v0c0.001 97.663 80.53 177.571 178.956 177.571v0zM253.349 556.296c-0.265 0-0.472-0.132-0.721-0.151v0.115c-7.658 0-10.009-2.258-19.699-19.303-9.708-17.064-36.159-79.655-28.329-94.992 7.833-15.339 36.71-9.386 36.71-25.654v-65.11c0-6.635 5.385-12.020 12.039-12.020 6.617 0 12.001 5.385 12.001 12.020v193.075c0.002 6.637-5.384 12.021-12.001 12.021v0zM156.461 556.296v-28.042c0-2.068-1.669-3.737-3.716-3.737-2.068 0-3.737 1.669-3.737 3.737v28.042h-7.376v-28.042c0-2.068-1.667-3.737-3.733-3.737-2.067 0-3.735 1.669-3.735 3.737v28.042h-7.129v-28.042c0-2.068-1.669-3.737-3.736-3.737-2.048 0-3.735 1.669-3.735 3.737v28.042h-9.366l-6.806-75.823c0-14.753 9.404-27.228 22.487-32.026v-97.247c0-6.635 5.385-12.020 12.022-12.020 6.636 0 12.020 5.385 12.020 12.020v97.419c12.797 4.966 21.9 17.311 21.9 31.854l-5.973 75.823h-9.386z" />
<glyph unicode="&#xe301;" glyph-name="bhy-occupation-01" d="M175.259 895.979h667.783c61.213 0 111.293-50.083 111.293-111.296v-667.783c0-61.212-50.079-111.296-111.293-111.296h-667.783c-61.213 0-111.3 50.083-111.3 111.296v667.783c0 61.213 50.087 111.296 111.3 111.296v0zM381.954 405.659v-209.257h76.315v209.257l-38.157 41.032-38.158-41.032zM254.759 196.402h76.314v160.023l-76.315-77.961v-82.062h0.001zM636.345 454.894v-258.492h76.321v340.554l-76.321-82.062zM509.149 352.319v-155.917h76.318v205.155l-60.422-65.655-15.896 16.417zM763.54 705.187h-146.27l60.418-73.855-155.814-164.126-101.763 110.782-165.352-168.226v-73.859l165.352 168.234 104.934-110.788 187.621 196.953 50.874-61.547v176.433z" />
<glyph unicode="&#xe302;" glyph-name="bhy-occupation-02" d="M175.257 895.979h667.779c61.216 0 111.3-50.083 111.3-111.296v-667.783c0-61.212-50.083-111.296-111.3-111.296h-667.779c-61.213 0-111.296 50.083-111.296 111.296v667.783c-0.001 61.213 50.082 111.296 111.296 111.296v0zM508.278 640.314c-79.085 0-143.18-62.799-143.18-140.281 0-77.471 64.095-140.274 143.18-140.274 79.082 0 143.184 62.802 143.184 140.274 0 77.482-64.102 140.278-143.184 140.278v0.003zM342.947 446.187v129.509c-1.813 0-3.608-0.075-5.383-0.217 29.34 63.744 94.687 108.131 170.735 108.131s141.395-44.388 170.736-108.131c-1.773 0.142-3.569 0.217-5.383 0.217v-129.509c36.519 0 66.142 28.995 66.142 64.754 0 24.284-13.665 45.445-33.871 56.529-28.432 80.15-106.063 137.716-197.624 137.716-91.56 0-169.187-57.562-197.623-137.708-20.207-11.084-33.87-32.245-33.87-56.537 0-35.758 29.606-64.754 66.141-64.754v0 0zM651.16 371.945c-37.419-34.205-87.647-55.153-142.882-55.153-55.132 0-105.278 20.867-142.668 54.962-66.919-33.732-110.853-93.782-110.853-175.351h508.781c0 81.72-44.75 141.84-112.377 175.542v0z" />
<glyph unicode="&#xe303;" glyph-name="bhy-occupation-03" d="M175.256 895.979h667.783c61.213 0 111.296-50.083 111.296-111.296v-667.783c0-61.212-50.082-111.296-111.296-111.296h-667.783c-61.213 0-111.296 50.083-111.296 111.296v667.783c0 61.213 50.083 111.296 111.296 111.296v0zM509.15 705.187c-140.526 0-254.395-113.871-254.395-254.398 0-140.519 113.868-254.391 254.395-254.391 140.521 0 254.391 113.871 254.391 254.391 0 140.526-113.869 254.398-254.391 254.398v0zM509.15 230.314v0c-121.752 0-220.481 98.733-220.481 220.474 0 121.753 98.729 220.477 220.481 220.477 121.742 0 220.477-98.729 220.477-220.477 0-121.743-98.736-220.474-220.477-220.474zM392.728 536.378v-194.299h38.43v194.299h-38.43zM471.131 499.725h57.998v-156.932h38.438v156.932h58.002v38.427h-154.437v-38.427z" />
<glyph unicode="&#xe304;" glyph-name="bhy-occupation-04" d="M175.257 895.979h667.779c61.216 0 111.3-50.083 111.3-111.296v-667.783c0-61.209-50.083-111.296-111.3-111.296h-667.779c-61.213 0-111.296 50.086-111.296 111.296v667.783c-0.001 61.213 50.082 111.296 111.296 111.296v0zM509.151 569.66c-31.604 0-57.314-25.711-57.314-57.31 0-25.249 16.424-46.722 39.14-54.341v-241.109c0-10.035 8.132-18.171 18.174-18.171 10.035 0 18.167 8.136 18.167 18.171v241.109c22.714 7.617 39.139 29.092 39.139 54.341 0 31.6-25.71 57.31-57.306 57.31v0zM608.102 639.648c-8.55 5.248-19.739 2.577-24.993-5.978-5.248-8.551-2.577-19.742 5.979-24.993 33.787-20.735 53.96-56.749 53.96-96.326 0-39.569-20.174-75.583-53.96-96.326-8.555-5.252-11.227-16.436-5.979-24.994 3.432-5.584 9.396-8.664 15.505-8.664 3.243 0 6.518 0.866 9.487 2.686 44.637 27.402 71.291 74.991 71.291 127.297-0.005 52.31-26.652 99.895-71.29 127.298v0zM670.015 699.218c-8.030 6.021-19.413 4.392-25.437-3.637-6.017-8.022-4.392-19.412 3.641-25.436 50.193-37.639 78.976-95.151 78.976-157.795 0-62.64-28.783-120.156-78.976-157.795-8.033-6.018-9.658-17.411-3.641-25.433 3.569-4.761 9.031-7.274 14.551-7.274 3.797 0 7.619 1.185 10.887 3.634 59.436 44.565 93.526 112.676 93.526 186.868s-34.096 142.307-93.527 186.868v0zM429.203 608.675c8.555 5.252 11.234 16.442 5.979 24.993-5.248 8.551-16.432 11.23-24.99 5.978-44.633-27.402-71.284-74.991-71.284-127.298-0.010-52.307 26.64-99.895 71.284-127.301 2.967-1.819 6.248-2.689 9.485-2.689 6.11 0 12.078 3.080 15.505 8.671 5.255 8.551 2.576 19.739-5.979 24.99-33.785 20.747-53.96 56.754-53.954 96.33 0 39.576 20.168 75.583 53.954 96.326v0zM370.083 354.555c-50.192 37.635-78.983 95.148-78.989 157.795 0.007 62.647 28.797 120.163 78.989 157.795 8.023 6.018 9.648 17.407 3.63 25.436-6.021 8.034-17.407 9.662-25.436 3.637-59.429-44.558-93.523-112.672-93.523-186.869s34.095-142.31 93.523-186.872c3.275-2.452 7.1-3.634 10.889-3.634 5.525 0 10.981 2.516 14.551 7.278 6.025 8.024 4.393 19.416-3.634 25.434z" />
<glyph unicode="&#xe305;" glyph-name="bhy-occupation-05" d="M175.26 895.979h667.782c61.207 0 111.293-50.083 111.293-111.296v-667.783c0-61.209-50.086-111.296-111.293-111.296h-667.782c-61.213 0-111.3 50.086-111.3 111.296v667.783c0 61.213 50.087 111.296 111.3 111.296v0zM762.403 617.141l-50.902 44.267c-7.018 6.117-17.666 5.378-23.748-1.753-3.647-4.059-4.535-9.424-3.541-14.363-3.631-0.252-6.987-1.901-9.882-4.35l-0.383 0.348-114.309-131.702c1.891-10.729 0.078-21.978-5.617-31.799l14.519-12.777-7.465-8.618c-1.359 1.635-2.708 3.261-4.048 4.882l-4.152 5.039-2.098 2.561c-40.104 48.83-72.621 88.328-75.846 92.161-33.062 39.97-0.667 83.925 43.969 96.092 10.438 2.8 20.785 2.846 31.469 3.286 2.573 0.043 7.934-0.44 13.263-0.937 11.077-0.93 11.67 14.087 1.579 16.641-5.656 1.388-11.972 2.952-15.137 3.499-57.090 10.84-120.518-3.775-184.299-56.154-4.541-3.825-9.282-7.55-13.88-11.383-14.523-41.223-43.501-50.477-57.179-52.52-5.68 5.946-15.154 6.642-21.673 1.316-1.419-1.189-2.611-2.515-3.48-4.059l-13.671-11.095c-6.749-5.506-7.721-15.385-2.175-22.062l54.689-66.358c5.436-6.649 15.416-7.636 22.13-2.179l12.858 10.584c1.855 0.557 3.637 1.508 5.244 2.821 5.745 4.68 7.37 12.468 4.464 18.933 0.029 0.036 0.036 0.114 0.078 0.184 0.419 0.948 0.845 1.966 1.366 3.066 0.663 1.385 1.419 2.747 2.175 4.13 0.44 0.568 0.802 1.241 1.224 1.923 1.132 1.572 2.455 2.994 3.704 4.314 2.732 2.512 5.897 4.652 9.907 5.777 25.537 7.256 48.199-11.077 59.088-22.006 0.88-0.943 34.648-42.131 75.32-91.834v0l16.907-20.637-16.91 20.637-70.421-80.885-1.611 1.398-28.381-22.083-26.863-42.33 21.661-18.915 38.594 32.128 18.046 31.143-1.533 1.274 67.42 77.633c59.47-72.691 125.843-153.746 125.843-153.746l66.731 49.926c0 0-58.853 71.514-118.263 143.965l-19.086 23.174 10.237 11.822 13.863-12.223c9.097 7.111 20.025 10.673 31.085 10.236l114.497 131.67-0.443 0.326c2.15 3.243 3.214 6.848 2.969 10.357 5.050-0.362 10.124 1.352 13.722 5.503 6.123 6.977 5.4 17.63-1.622 23.753v0zM600.864 505.768l84.713 97.578-8.431 7.402-84.836-97.593 8.554-7.387zM632.588 478.077l84.898 97.629-8.548 7.373-84.781-97.581 8.431-7.42z" />
<glyph unicode="&#xe306;" glyph-name="bhy-occupation-06" d="M175.26 895.979h667.784c61.207 0 111.294-50.079 111.294-111.293v-667.784c0-61.213-50.087-111.297-111.294-111.297h-667.784c-61.213 0-111.3 50.083-111.3 111.297v667.784c0 61.214 50.087 111.293 111.3 111.293v0zM551.137 640.098c0 56.367-45.697 102.060-102.064 102.060s-102.060-45.698-102.060-102.060c0-56.367 45.694-102.060 102.060-102.060s102.064 45.694 102.064 102.060v0zM418.656 421.457l117.111 49.362c7.16 3.020 19.093 3.995 26.65 2.186l2.676-0.639c-6.174 24.369-26.882 28.761-76.12 28.761h-109.455c-40.048 0-61.629 1.135-74.668-26.179-0.185-0.39-11.737-30.642-23.734-68.018-6.004-18.706-12.114-39.191-16.975-58.954-4.833-19.894-8.587-38.583-9.346-56.43l0.017 0.414-0.007-0.188c-0.017-0.614-0.053-1.394-0.053-2.373-0.018-9.878 2.665-19.157 6.437-26.633 7.268-14.123 17.153-23.006 27.343-30.678 17.99-13.135 39.034-22.629 61.646-31.316 67.289-25.427 149.103-40.407 150.206-40.698 2.367-0.44 4.715-0.646 7.036-0.646 18 0 34.020 12.806 37.438 31.143 3.86 20.704-9.793 40.613-30.494 44.477 0 0-0.65 0.12-2.118 0.41-10.949 2.101-63.069 12.682-110.42 28.024-23.568 7.565-46.066 16.595-59.95 24.746-4.581 2.616-8.132 5.183-10.347 7.014 0.986 8.772 3.356 21.244 6.667 34.52 5.035 20.495 12.064 43.437 18.702 63.559-6.259-37.622-13.916-88.414-14.704-93.569 1.296-0.866 2.842-1.838 4.634-2.867 12.642-7.419 33.758-16.115 58.045-23.908 0.674-0.216 1.349-0.433 2.026-0.653-0.777 1.951-1.21 4.009-1.21 6.068v123.531c0 7.77 5.804 16.516 12.965 19.532v0zM727.188 274.109c-0.007 0-0.437 0.014-1.522 0.074-0.167 0.011-0.352 0.018-0.535 0.028-0.21-0.095-0.411-0.209-0.621-0.294l-117.097-49.362c-7.161-3.020-19.097-3.995-26.651-2.19l-7.884 1.888c0.049-0.213 0.106-0.437 0.156-0.65 6.421-2.377 12.976-4.455 19.688-6.433 29.313-8.256 61.305-12.791 86.668-15.594 25.302-2.767 43.706-3.618 44.257-3.647 0.596-0.028 1.195-0.042 1.792-0.042 20.249 0 37.114 15.927 38.061 36.354 0.987 21.045-15.274 38.889-36.312 39.868v0zM716.204 413.758l-105.585-44.502c-5.003-2.108-9.058-8.224-9.058-13.646v-109.781c0-5.429 4.055-8.119 9.058-6.014l105.585 44.509c5.003 2.108 9.055 8.213 9.055 13.643v109.787c0 5.422-4.052 8.112-9.055 6.004v0zM573.204 366.35l-147.015 35.239c-5.294 1.266-9.587-2.122-9.587-7.565v-110.47c0-5.442 4.293-10.882 9.587-12.156l147.015-35.234c5.295-1.266 9.587 2.115 9.587 7.562v110.473c-0.007 5.446-4.293 10.886-9.587 12.152v0zM432.43 340.282l-2.863 0.834 0.085 4.048-3.815 1.122-2.075-3.471-2.771 0.813 8.186 13.036 3.434-1.003-0.181-15.378zM441.701 337.572l-7.819 2.284 4.158 14.215 2.732-0.798-3.477-11.904 5.081-1.491-0.674-2.306zM450.948 334.867l-7.822 2.285 4.156 14.214 2.739-0.801-3.48-11.904 5.085-1.487-0.677-2.307zM452.807 339.417l0.55 1.888 5.067-1.483-0.551-1.885-5.066 1.48zM465.697 330.552l1.788 6.117-4.846 1.415-1.789-6.119-2.735 0.801 4.159 14.215 2.735-0.798-1.661-5.674 4.846-1.419 1.658 5.677 2.732-0.801-4.152-14.215-2.735 0.801zM481.21 326.012l-2.867 0.84 0.082 4.048-3.807 1.114-2.076-3.467-2.768 0.813 8.182 13.036 3.438-1.003-0.184-15.381zM484.985 324.912l0.037 15.419 2.998-0.88-0.227-6.756c-0.036-0.902-0.075-1.809-0.124-2.718-0.053-0.908-0.124-1.816-0.227-2.717l0.057-0.015c0.408 0.803 0.837 1.609 1.291 2.403 0.457 0.798 0.912 1.583 1.387 2.353l3.484 5.805 2.938-0.859-8.484-12.951-3.13 0.916zM504.635 332.103l-4.912 1.44-1.008-3.438 4.638-1.359-0.657-2.236-4.634 1.359-1.16-3.959 5.217-1.522-0.671-2.292-7.951 2.324 4.159 14.215 7.65-2.236-0.67-2.295zM510.711 317.382v0c-1.807 0.532-3.234 2.225-3.201 4.045l2.867 9.793 8.072-2.36-0.614-2.098-5.468 1.604-2.194-7.479c-0.006 0 0.497-0.995 1.211-1.199 0.55-0.164 1.288 0.092 1.675 0.355l1.849 6.33 2.59-0.755-1.917-6.553c-0.951-1.547-3.065-2.208-4.871-1.682zM541.835 321.739l-0.613-2.109-0.615-2.094-4.757 1.391-1.622-5.535c1.192 0.098 2.423 0.325 3.69 0.673l0.472-2.114c-1.579-0.439-3.224-0.716-4.819-0.794l-3.026-10.343 3.541-1.040-0.61-2.091-6.142 1.796 3.444 11.769c-0.6 0.082-1.172 0.2-1.714 0.355l0.057 2.256c0.745-0.216 1.504-0.365 2.292-0.447l1.831 6.274-7.012 2.051-1.419-4.85 3.715-1.089-0.561-1.908-3.715 1.089-0.558-1.895c-0.611-2.098-2.813-3.304-4.911-2.693-2.104 0.618-3.307 2.817-2.689 4.918 0.56 1.92 2.451 3.090 4.375 2.803l0.538-0.114 1.42-0.414 1.422 4.85-5.251 1.536 0.614 2.098 5.248-1.54 0.515 1.76-4.587 1.342 0.614 2.094c2.849-0.837 5.706-1.668 8.555-2.505l-0.611-2.094-1.59 0.469-0.518-1.757 7.018-2.055 1.129 3.854 2.597-0.762-1.122-3.85 2.157-0.631 0.859 2.93c0.057 0.199 0.007 0.788-0.177 1.050l2.252-0.663c0.262-0.46 0.43-1.309 0.283-1.969zM545.826 307.117c1.806-0.529 3.927 0.128 4.875 1.678l1.917 6.55-2.594 0.758-1.852-6.33c-0.38-0.27-1.122-0.518-1.672-0.362-0.712 0.21-1.216 1.206-1.206 1.203l2.19 7.476 5.468-1.597 0.615 2.090-8.073 2.36-2.863-9.792c-0.036-1.813 1.394-3.509 3.197-4.034v0zM554.039 300.081l1.533 5.244-2.604 0.759-1.533-5.241 2.604-0.762zM556.109 307.171l1.264 4.322-2.598 0.758-1.266-4.321 2.6-0.759zM555.311 314.096l2.6-0.763 1.263 4.327-2.597 0.758-1.266-4.321zM575.933 304.754l-1.324 0.384 1.334 4.573c-4.609 1.349-9.215 2.697-13.827 4.041l-1.338-4.566-1.323 0.383-0.607-2.094 1.316-0.383-1.331-4.574 10.265-2.998 0.614 2.090-7.667 2.246 0.723 2.473 8.625-2.523-1.465-5.016c-0.131-0.444-0.84-0.837-1.288-0.706l-7.636 2.232-0.61-2.094c3.427-1.001 6.195-1.809 9.622-2.813 0.866-0.259 1.865 0.433 2.087 1.181l1.891 6.458 1.323-0.39 0.616 2.097zM568.393 304.148l-2.917 0.851-0.433-1.483 2.916-0.851 0.434 1.483zM577.501 310.123l0.614 2.094-13.874 4.059 0.234 0.817-2.446 0.716-1.003-2.867 16.474-4.819zM517.973 314.768c-0.288-0.986 0.23-2.118 1.227-2.409 1.122-0.33 1.675 0.213 2.044 1.214l0.618 2.108-1.448 0.426c-1.113 0.261-2.061-0.037-2.441-1.338v0zM704.914 428.433l-145.38 34.836c-5.391 1.291-13.891 0.597-19.001-1.561l-104.097-43.877c-5.109-2.153-4.879-4.946 0.508-6.234l145.387-34.841c5.391-1.291 13.895-0.596 19.001 1.557l104.094 43.88c5.104 2.157 4.877 4.947-0.512 6.238z" />
<glyph unicode="&#xe307;" glyph-name="bhy-occupation-07" d="M175.255 895.979h667.784c61.209 0 111.299-50.083 111.299-111.296v-667.78c0-61.213-50.089-111.296-111.299-111.296h-667.784c-61.206 0-111.296 50.082-111.296 111.296v667.781c0 61.212 50.090 111.295 111.296 111.295v0zM715.070 581.408h-81.891c-0.334 1.76-0.762 3.556-1.727 5.216l-43.107 76.839c-4.517 8.011-14.718 10.768-22.665 6.248-7.977-4.553-10.766-14.686-6.251-22.665l36.762-65.638h-160.255l35.659 65.868c4.517 7.98 1.724 18.114-6.248 22.666-7.976 4.524-18.145 1.696-22.662-6.28l-42.011-77.067c-0.936-1.632-1.398-3.427-1.696-5.187h-95.516c-24.525 0-45.864-14.327-48.688-41.407-0.263-2.594 2.356-22.538 3.761-27.587 8.736-31.905 19.901-51.643 34.388-59.023 47.432-188.835 48.891-192.294 49.554-193.823 7.745-18.279 25.593-30.074 45.431-30.074h240.051c19.277 0 36.855 11.364 44.903 28.882 0.762 1.76 2.426 5.351 49.519 192.886 15.353 4.889 28.016 25.626 37.851 61.816 1.331 4.855 3.69 25.458 3.258 28.584-3.789 26.457-24.493 39.747-48.419 39.747v0zM303.46 548.177l411.609-0.001c8.338 0 16.546-6.351 15.985-14.526-1.501-22.133-13.593-44.033-19.015-50.317h-405.524c-5.418 6.15-17.577 28.085-19.071 50.353-0.535 8.139 7.679 14.491 16.017 14.491zM642.546 272.164v0c-2.62-5.748-8.371-9.439-14.62-9.439h-240.051c-6.482 0-12.294 3.854-14.388 8.677-2.093 6.745-26.689 103.958-45.501 178.732h359.76c-18.777-74.742-43.334-171.955-45.199-177.969zM419.781 423.245c-9.175 0-16.616-6.813-16.616-15.222v-110.501c0-8.405 7.44-15.219 16.616-15.219 9.172 0 16.616 6.813 16.616 15.219v110.472c0 8.437-7.413 15.25-16.616 15.25v0zM480.699 423.245c-9.168 0-16.616-6.813-16.616-15.222v-110.501c0-8.405 7.448-15.219 16.616-15.219 9.172 0 16.62 6.813 16.62 15.219v110.472c0 8.437-7.448 15.25-16.62 15.25v0zM541.585 423.245c-9.172 0-16.618-6.813-16.618-15.222v-110.501c0-8.405 7.444-15.219 16.618-15.219 9.176 0 16.616 6.813 16.616 15.219v110.472c0.001 8.437-7.44 15.25-16.616 15.25v0zM602.47 423.245c-9.172 0-16.616-6.813-16.616-15.222v-110.501c0-8.405 7.445-15.219 16.616-15.219 9.176 0 16.615 6.813 16.615 15.219v110.472c0 8.437-7.405 15.25-16.615 15.25z" />
<glyph unicode="&#xe308;" glyph-name="bhy-occupation-08" d="M175.26 895.979h667.782c61.213 0 111.297-50.083 111.297-111.296v-667.783c0-61.212-50.083-111.296-111.297-111.296h-667.782c-61.213 0-111.3 50.083-111.3 111.296v667.783c0 61.213 50.087 111.296 111.3 111.296v0zM222.958 269.419h134.267v362.742h-134.267v-362.742zM290.083 337.136v0c-16.907 0-30.621 13.704-30.62 30.614 0 16.924 13.713 30.621 30.62 30.621 16.914 0 30.624-13.697 30.624-30.621 0-16.904-13.71-30.614-30.624-30.614zM252.802 596.821h71.049v-130.921h-71.049v130.921zM252.802 454.916h71.049v-13.548h-71.049v13.548zM262.219 585.843v-21.992h51.824v21.992h-51.824zM379.6 269.419h134.257v362.742h-134.257v-362.742zM446.724 337.136v0c-16.907 0-30.621 13.704-30.62 30.614 0 16.924 13.71 30.621 30.62 30.621 16.913 0 30.62-13.697 30.62-30.621 0-16.904-13.706-30.614-30.62-30.614zM409.433 596.821h71.059v-130.921h-71.059v130.921zM409.433 454.916h71.059v-13.548h-71.059v13.548zM418.853 585.843v-21.992h51.821v21.992h-51.821zM654.846 644.008l-123.786-51.998 140.498-334.431 123.782 51.995-140.494 334.434zM572.258 570.986l65.504 27.52 50.714-120.706-65.507-27.523-50.711 120.709zM627.224 440.14l5.243-12.489 65.511 27.52-5.248 12.489-65.507-27.52zM707.225 346.007c15.584 6.549 22.914 24.503 16.371 40.084-6.549 15.601-24.503 22.931-40.087 16.375-15.598-6.549-22.925-24.496-16.379-40.081 6.549-15.597 24.503-22.927 40.095-16.378v0zM641.487 564.299l-8.512 20.268-47.776-20.062 8.519-20.267 47.769 20.061z" />
<glyph unicode="&#xe309;" glyph-name="bhy-occupation-09" d="M175.253 895.979h667.782c61.213 0 111.297-50.083 111.297-111.296v-667.783c0-61.212-50.083-111.296-111.297-111.296h-667.782c-61.213 0-111.292 50.083-111.292 111.296v667.783c0 61.213 50.079 111.296 111.292 111.296v0zM576.454 464.924c25.44 19.862 41.876 50.626 41.876 85.188 0 59.741-48.915 108.351-109.071 108.351-60.148 0-109.071-48.61-109.071-108.351 0-34.562 16.435-65.326 41.876-85.188-67.054-26.615-114.586-91.671-114.586-167.631v-36.109c0-9.988 8.132-18.064 18.174-18.064h327.213c10.045 0 18.178 8.077 18.178 18.064v36.109c0 75.988-47.535 141.016-114.589 167.631v0 0zM430.355 550.255v0c0-43.238 35.389-78.383 78.904-78.383 43.522 0 78.908 35.159 78.908 78.383 0 43.235-35.386 78.383-78.908 78.383-43.515-0.001-78.904-35.149-78.904-78.383v0zM663.703 272.748v19.181c0 84.604-69.274 153.438-154.427 153.438-85.188 0-154.477-68.835-154.477-153.438v-19.181h308.904zM368.374 448.184l3.556 0.844c7.622 2.534 13.053 9.182 13.053 16.989 0 7.54-5.074 13.987-12.274 16.704-19.465 8.782-32.019 28.059-32.019 49.302 0 24.071 20.913 44.349 42.805 51.381 3.836 11.756 9.633 22.63 17.018 32.246 1.288 2.122 2.646 4.201 4.059 6.238-1.477 0.071-2.867 0.44-4.386 0.44-50.111 0-90.897-40.506-90.897-90.305 0-22.857 8.772-44.285 23.649-60.578-47.323-24.355-78.185-73.060-78.185-128.167v-27.932c0-9.984 8.132-18.053 18.174-18.053h32.569c0 12.369 1.278 20.302 3.665 31.972h-23.010v14.012c0.001 49.915 33.776 92.757 82.223 104.905v0 0zM685.384 471.446c14.881 16.293 23.648 37.721 23.648 60.578 0 49.799-40.776 90.319-90.897 90.319-1.514 0-2.913-0.369-4.382-0.44 1.412-2.036 2.768-4.116 4.059-6.238 7.38-9.615 13.178-20.494 17.003-32.245 21.893-7.025 45.835-27.314 45.835-51.384 0-21.24-12.578-40.531-32.026-49.299-7.195-2.718-12.273-9.169-12.273-16.704 0-7.806 5.446-14.455 13.054-16.986l3.548-0.848c48.472-12.163 82.229-54.99 82.229-104.92v-14.012h-26.050c2.402-11.67 3.664-19.603 3.664-31.972h32.573c10.055 0 18.17 8.069 18.17 18.053v27.932c0.032 55.107-30.83 103.812-78.155 128.167v0z" />
<glyph unicode="&#xe310;" glyph-name="bhy-occupation-10" d="M175.261 895.979h667.782c61.21 0 111.293-50.083 111.293-111.296v-667.783c0-61.209-50.082-111.296-111.293-111.296h-667.782c-61.213 0-111.299 50.086-111.299 111.296v667.783c0 61.213 50.086 111.296 111.299 111.296v0zM321.282 451.832h390.289c2.772 0 5.283 0.085 7.537 0.262 2.253 0.171 4.938 0.259 8.054 0.259h11.954v218.27c0 5.545-1.037 10.744-3.119 15.594-2.079 4.847-4.935 9.094-8.576 12.731-3.637 3.641-7.97 6.497-12.99 8.576-5.028 2.075-10.307 3.119-15.853 3.119h-377.296c-11.092 0-20.53-3.896-28.328-11.695-7.792-7.796-11.695-17.237-11.695-28.325v-218.27h12.994c2.774 0 5.198-0.088 7.281-0.259 2.075-0.177 4.499-0.262 7.274-0.262h12.475zM743.271 417.010h-468.246c-6.234 0-11.172-1.385-14.813-4.156-3.634-2.771-5.454-6.582-5.454-11.432 0-3.815 1.642-7.362 4.935-10.655s8.402-4.935 15.331-4.935h468.248c6.93 0 12.040 1.727 15.339 5.197 3.289 3.464 4.931 7.622 4.931 12.469 0 4.854-1.905 8.317-5.712 10.396-3.814 2.075-8.664 3.116-14.559 3.116v0zM478.226 352.567v-128.884c0-9.005 2.945-16.719 8.835-23.127 5.89-6.409 13.515-9.616 22.865-9.616 8.664 0 16.464 2.69 23.389 8.059 6.927 5.368 10.393 13.078 10.393 23.124v130.445h-65.481z" />
<glyph unicode="&#xe311;" glyph-name="bhy-occupation-11" d="M175.26 895.979h667.779c61.209 0 111.3-50.083 111.3-111.296v-667.783c0-61.209-50.090-111.296-111.3-111.296h-667.779c-61.213 0-111.3 50.086-111.3 111.296v667.783c0 61.213 50.087 111.296 111.3 111.296v0zM652.845 450.792v0c-22.002 0-39.19 17.879-39.19 39.878s17.872 39.878 39.19 39.878c22.003 0 39.186-17.879 39.186-39.878s-17.872-39.878-39.186-39.878zM573.777 555.3v0c-21.999 0-39.193 17.876-39.194 39.878 0 21.999 17.876 39.874 39.194 39.874 21.999 0 39.19-17.875 39.19-39.874 0-22.002-17.879-39.878-39.19-39.878zM443.828 555.3v0c-21.998 0-39.185 17.876-39.185 39.878 0 21.999 17.872 39.874 39.185 39.874 22.006 0 39.19-17.875 39.19-39.874 0-22.002-17.872-39.878-39.19-39.878zM364.765 450.792v0c-22.002 0-39.19 17.879-39.19 39.878s17.872 39.878 39.19 39.878c21.999 0 39.19-17.879 39.19-39.878s-17.879-39.878-39.19-39.878zM508.462 196.398c30.94 0 56.374 25.44 56.374 56.381 0 13.752-4.812 27.502-13.746 36.44-4.812 6.192-6.196 10.314-6.196 15.129 0 12.377 10.318 22.688 22.695 22.688h47.438c81.814 0 148.513 67.381 148.513 149.886-2.066 125.819-116.196 228.265-255.080 228.265-140.259 0-253.709-114.13-253.709-254.394 0.001-140.255 114.135-254.394 253.71-254.394v0zM508.462 671.496c-121.007 0-220.020-99.009-220.020-220.705s98.32-220.701 220.020-220.701c12.373 0 22.687 10.311 22.687 22.687 0 6.188-2.75 11.688-4.811 13.752l-1.381 2.062c-5.495 7.561-13.057 19.252-13.057 35.754 0 30.941 25.433 56.374 56.378 56.374h47.443c63.254 0 115.504 52.257 115.504 116.199-2.75 106.571-101.758 194.577-222.761 194.577z" />
<glyph unicode="&#xe312;" glyph-name="bhy-occupation-12" d="M175.26 895.979h667.781c61.213 0 111.3-50.079 111.3-111.293v-667.784c0-61.213-50.086-111.297-111.3-111.297h-667.781c-61.213 0-111.3 50.083-111.3 111.297v667.784c0 61.214 50.087 111.293 111.3 111.293v0zM620.452 547.178h49.91l30.468-53.134v-10.978h-80.378v64.112zM660.642 343.872v0c14.636 0 26.499-11.801 26.499-26.355 0-14.556-11.862-26.349-26.499-26.349s-26.499 11.794-26.499 26.349c0 14.554 11.861 26.355 26.499 26.355zM372.675 343.872v0c14.639 0 26.505-11.801 26.505-26.355 0-14.556-11.864-26.349-26.505-26.349-14.629 0-26.499 11.794-26.499 26.349 0 14.554 11.869 26.355 26.499 26.355zM323.737 373.29h-53.958c-8.299 0-15.019-6.687-15.019-14.944v-32.468c0-8.256 6.72-14.944 15.019-14.944h29.504c-0.213 2.317-0.355 4.651-0.355 7.032 0.001 21.968 9.613 41.655 24.809 55.325v0zM372.675 375.052c-31.948 0-57.857-25.764-57.857-57.534 0-31.768 25.909-57.524 57.857-57.524 31.962 0 57.864 25.757 57.864 57.524-0.001 31.771-25.902 57.534-57.864 57.534v0zM372.675 291.168c14.64 0 26.505 11.801 26.505 26.349 0 14.554-11.865 26.363-26.505 26.363-14.629 0-26.499-11.809-26.499-26.363 0-14.548 11.869-26.349 26.499-26.349v0zM660.642 375.052c-31.952 0-57.857-25.764-57.857-57.534 0-31.768 25.905-57.524 57.857-57.524 31.958 0 57.864 25.757 57.864 57.524 0 31.771-25.905 57.534-57.864 57.534v0zM660.642 291.168c14.636 0 26.499 11.801 26.499 26.349 0 14.554-11.862 26.363-26.499 26.363s-26.499-11.809-26.499-26.363c0.001-14.548 11.861-26.349 26.499-26.349v0zM580.702 373.29h-156.423c15.197-13.67 24.805-33.357 24.805-55.326 0-2.381-0.138-4.715-0.358-7.032h136.726c-0.194 2.171-0.33 4.364-0.33 6.586 0 22.304 9.988 42.237 25.706 55.77l-30.127 0.002zM748.513 373.29h-40.718c15.732-13.533 25.721-33.469 25.721-55.773 0-2.222-0.146-4.414-0.337-6.586h15.334c8.303 0 15.030 6.688 15.030 14.944v32.468c0.001 8.259-6.723 14.946-15.030 14.946v0zM747.201 467.939l-65.471 110.42h-78.060c-8.293 0-15.020-6.692-15.020-14.938v-190.133h22.18c13.014 11.191 29.926 18.004 48.489 18.004 18.55 0 35.475-6.813 48.476-18.004h39.406v94.652h-0.001zM700.83 483.065v10.978l-30.468 53.134h-49.909v-64.112h80.377zM544.46 389.539h30.049v27.222h-0.135c-1.355-15.254-14.217-27.222-29.914-27.222v0zM284.807 389.539h259.654c15.701 0 28.559 11.968 29.914 27.222 0.078 0.876 0.135 1.76 0.135 2.658v192.294c0 16.5-13.448 29.875-30.049 29.875h-259.654c-16.598 0-30.046-13.373-30.046-29.875v-192.298c0-16.5 13.448-29.875 30.046-29.875z" />
<glyph unicode="&#xe313;" glyph-name="bhy-occupation-13" d="M175.259 895.979h667.783c61.213 0 111.293-50.083 111.293-111.296v-667.783c0-61.212-50.079-111.296-111.293-111.296h-667.783c-61.213 0-111.3 50.083-111.3 111.296v667.783c0 61.213 50.087 111.296 111.3 111.296v0zM449.306 520.564v0c3.896 0 7.068-3.172 7.068-7.089 0-3.896-3.172-7.064-7.068-7.064h-119.457c-3.927 0-7.078 3.168-7.078 7.064 0 3.917 3.151 7.089 7.078 7.089h119.457zM449.306 462.338v0c3.896 0 7.068-3.179 7.068-7.082 0-3.917-3.172-7.075-7.068-7.075h-119.457c-3.927 0-7.078 3.158-7.078 7.075 0 3.903 3.151 7.082 7.078 7.082h119.457zM449.306 404.098v0c3.896 0 7.068-3.184 7.068-7.089 0-3.903-3.172-7.075-7.068-7.075h-119.457c-3.927 0-7.078 3.172-7.078 7.075 0 3.907 3.151 7.089 7.078 7.089h119.457zM561.535 513.474v0c0 3.917 3.164 7.089 7.068 7.089h119.453c3.917 0 7.082-3.172 7.082-7.089 0-3.896-3.165-7.064-7.078-7.064h-119.457c-3.903 0-7.068 3.168-7.068 7.064zM688.060 462.338v0c3.913 0 7.078-3.179 7.078-7.082 0-3.917-3.165-7.075-7.078-7.075h-119.457c-3.903 0-7.068 3.158-7.068 7.075 0 3.903 3.165 7.082 7.068 7.082h119.457zM688.060 404.098v0c3.913 0 7.078-3.184 7.078-7.089 0-3.903-3.165-7.075-7.078-7.075h-119.457c-3.903 0-7.068 3.172-7.068 7.075 0 3.907 3.165 7.089 7.068 7.089h119.457zM627.503 640.343c-43.846 0-92.814-6.706-118.346-23.936-25.547 17.229-74.505 23.936-118.36 23.936-62.76 0-136.037-13.71-136.037-52.392v-309.033c0-5.236 2.307-10.166 6.298-13.525 3.995-3.356 9.257-4.791 14.409-3.897 34.801 6.025 74.668 9.204 115.331 9.204 40.662 0 80.529-3.178 115.334-9.204 0.472-0.089 0.94-0.089 1.423-0.135 0.376-0.032 0.742-0.064 1.121-0.075 0.157-0.017 0.313-0.046 0.473-0.046 0.948 0 1.891 0.078 2.82 0.249 0.064 0.007 0.121 0 0.203 0.007 34.805 6.025 74.672 9.204 115.334 9.204 40.658 0 80.536-3.178 115.33-9.204 1.008-0.178 2.029-0.256 3.023-0.256 4.13 0 8.168 1.437 11.39 4.153 3.988 3.36 6.293 8.289 6.293 13.525v309.033c-0.001 38.682-73.278 52.392-136.038 52.392v0zM290.131 299.537c31.454 4.304 65.829 6.549 100.666 6.549 34.835 0 69.2-2.245 100.662-6.549v286.172c-7.15 7.008-42.5 19.26-100.662 19.26-58.173 0-93.509-12.252-100.666-19.26v-286.172zM728.165 299.537v286.172c-7.157 7.008-42.489 19.26-100.662 19.26-58.177 0-93.509-12.252-100.67-19.26v-286.172c62.894 8.586 138.422 8.586 201.331 0z" />
<glyph unicode="&#xe314;" glyph-name="bhy-occupation-14" d="M175.257 895.979h667.779c61.216 0 111.3-50.083 111.3-111.296v-667.783c0-61.212-50.083-111.296-111.3-111.296h-667.779c-61.213 0-111.296 50.083-111.296 111.296v667.783c-0.001 61.213 50.082 111.296 111.296 111.296v0zM509.147 705.182c-140.494 0-254.391-113.89-254.391-254.391 0-27.421 4.343-53.827 12.376-78.57 0.163-0.624 0.368-1.235 0.603-1.828 0.177-0.539 0.348-1.083 0.532-1.618 0.043 0.046 0.099 0.082 0.142 0.128 2.785-5.43 8.509-9.154 15.125-9.154 9.35 0 16.932 7.448 16.932 16.638 0 2.264-0.465 4.414-1.296 6.379 0.036 0.004 0.068 0.011 0.103 0.014-6.929 21.411-10.698 44.253-10.698 67.98 0 121.798 98.746 220.531 220.548 220.531 121.808 0 220.554-98.732 220.554-220.531 0-121.792-98.746-220.531-220.554-220.531-65.454 0-124.237 28.521-164.622 73.799-0.007-0.004-0.010-0.011-0.014-0.018-3.102 4.13-8.097 6.819-13.725 6.819-9.424 0-17.055-7.504-17.055-16.746 0-3.527 1.114-6.799 3.005-9.498-0.043-0.011-0.085-0.025-0.128-0.036 46.652-53.986 115.614-88.148 192.56-88.148 140.501 0 254.391 113.897 254.391 254.391 0.002 140.5-113.888 254.39-254.389 254.39v0zM643.233 483.918c0 16.825-13.643 30.472-30.475 30.472-16.829 0-30.472-13.647-30.472-30.472 0-16.832 13.643-30.472 30.472-30.472 16.832 0 30.475 13.64 30.475 30.472v0zM401.826 453.446c16.538 0 29.947 13.64 29.947 30.472 0 16.825-13.409 30.472-29.947 30.472s-29.943-13.647-29.943-30.472c0-16.832 13.404-30.472 29.943-30.472v0zM375.991 351.397c-0.021-0.032-0.046-0.060-0.071-0.088 29.031-42.337 77.755-70.113 132.957-70.113 51.981 0 98.2 24.618 127.664 62.831-0.042 0.049-0.081 0.109-0.12 0.163 4.257 3.101 7.021 8.076 7.021 13.682 0 9.396-7.748 17.013-17.318 17.013-4.634 0-8.842-1.799-11.954-4.715-0.050 0.050-0.096 0.096-0.149 0.142-0.231-0.333-0.472-0.66-0.706-0.994-0.929-1.001-1.735-2.114-2.406-3.313-23.24-31.025-60.28-51.115-102.032-51.115-46.207 0-86.675 24.596-109.014 61.416-0.114-0.099-0.227-0.202-0.344-0.301-3.136 3.293-7.607 5.357-12.557 5.357-9.517 0-17.223-7.576-17.223-16.914 0-5.255 2.434-9.946 6.252-13.050z" />
<glyph unicode="&#xe315;" glyph-name="bhy-occupation-15" d="M175.256 895.979h667.783c61.213 0 111.296-50.086 111.296-111.3v-667.782c0-61.209-50.082-111.293-111.296-111.293h-667.783c-61.213 0-111.296 50.083-111.296 111.293v667.783c0 61.213 50.083 111.299 111.296 111.299v0zM491.562 245.136c16.904 16.102 42.138 25.072 69.392 25.072 15.435 0 29.956-3.244 42.684-8.878v443.853h-159.899v-434.429c18.933-4.287 35.681-13.366 47.822-25.617v0zM487.343 335.16v-23.138h14.523v23.138h-14.523zM487.343 369.847v-23.12h14.523v23.12h-14.523zM487.343 404.534v-23.134h14.523v23.134h-14.523zM487.343 439.221v-23.134h14.523v23.134h-14.523zM487.343 473.908v-23.12h14.523v23.12h-14.523zM487.343 508.595v-23.12h14.523v23.12h-14.523zM487.343 543.301v-23.124h14.523v23.124h-14.523zM487.343 577.983v-23.116h14.523v23.116h-14.523zM487.343 612.675v-23.124h14.523v23.124h-14.523zM560.035 589.551v23.124h-14.544v-23.124h14.544zM560.035 554.867v23.116h-14.544v-23.116h14.544zM560.035 520.177v23.124h-14.544v-23.124h14.544zM560.035 485.476v23.12h-14.544v-23.12h14.544zM560.035 450.789v23.12h-14.544v-23.12h14.544zM560.035 416.101v23.12h-14.544v-23.12h14.544zM560.035 381.4v23.134h-14.544v-23.134h14.544zM560.035 346.713v23.133h-14.544v-23.133h14.544zM560.035 312.022v23.138h-14.544v-23.138h14.544zM516.428 335.16v-23.138h14.523v23.138h-14.523zM516.428 369.847v-23.12h14.523v23.12h-14.523zM516.428 404.534v-23.134h14.523v23.134h-14.523zM516.428 439.221v-23.134h14.523v23.134h-14.523zM516.428 473.908v-23.12h14.523v23.12h-14.523zM516.428 508.595v-23.12h14.523v23.12h-14.523zM516.428 543.301v-23.124h14.523v23.124h-14.523zM516.428 577.983v-23.116h14.523v23.116h-14.523zM530.951 589.551v23.124h-14.526v-23.124h14.526zM560.035 658.925h-14.544v-34.684h14.544v34.684zM530.951 658.925h-14.526v-34.684h14.526v34.684zM487.343 658.925v-34.684h14.523v34.684h-14.523zM333.498 213.198c0 18.102 9.090 32.218 23.035 42.248 4.389 3.179 9.268 5.943 14.519 8.274 1.596 0.732 3.243 1.412 4.918 2.051h-4.918v23.134h29.080v-16.874c6.444 0.975 13.001 1.518 19.54 1.518 3.221 0 6.379-0.184 9.524-0.465v177.704h-174.439v-254.391h80.498l-0.142 0.82c-1.111 4.858-1.615 11.911-1.615 15.981v0zM283.838 323.594v-23.121h29.084v23.121h-29.084zM283.838 358.28v-23.12h29.084v23.12h-29.084zM283.838 392.981v-23.134h29.084v23.134h-29.084zM356.532 369.847v23.134h-29.089v-23.134h29.089zM356.532 335.16v23.12h-29.089v-23.12h29.089zM327.444 323.594v-23.121h29.089v23.121h-29.089zM400.132 300.459v23.134h-29.080v-23.134h29.080zM400.132 335.16v23.12h-29.080v-23.12h29.080zM400.132 369.847v23.134h-29.080v-23.134h29.080zM400.132 404.534v23.134h-29.080v-23.134h29.080zM356.532 404.534v23.134h-29.089v-23.134h29.089zM283.838 427.669v-23.134h29.084v23.134h-29.084zM283.838 288.906v-23.134h29.084v23.134h-29.084zM327.444 288.906v-23.134h29.089v23.134h-29.089zM763.541 196.398v323.779h-145.383v-266.873c19.21-12.965 31.838-32.175 32.951-53.535l0.157-3.371h112.275zM734.457 346.713v11.566h-14.523v-11.566h14.523zM676.309 358.28v-11.552h29.084v11.552h-29.084zM676.309 392.981v-23.134h29.084v23.134h-29.084zM676.309 427.669v-23.134h29.084v23.134h-29.084zM676.309 462.356v-23.134h29.084v23.134h-29.084zM734.457 439.221v23.134h-14.523v-23.134h14.523zM734.457 404.534v23.134h-14.523v-23.134h14.523zM734.457 369.847v23.134h-14.523v-23.134h14.523zM734.457 473.908v23.138h-14.523v-23.138h14.523zM705.394 473.908v23.138h-29.084v-23.138h29.084zM647.245 497.046v-23.138h14.537v23.138h-14.537zM647.245 462.356v-23.134h14.537v23.134h-14.537zM647.245 427.669v-23.134h14.537v23.134h-14.537zM647.245 392.981v-23.134h14.537v23.134h-14.537zM647.245 358.28v-11.552h14.537v11.552h-14.537zM647.245 335.16v-11.567h87.211v11.567h-87.211zM647.245 312.022v-11.549h87.211v11.549h-87.211zM647.245 288.906v-11.567h87.211v11.567h-87.211zM618.182 196.398h18.404c-0.742 15.137-7.689 28.443-18.404 38.846-4.322 4.18-9.080 7.97-14.544 11.042-12.16 6.877-26.802 10.932-42.684 10.932-31.31 0-58.151-12.188-69.782-33.711-8.473 16.691-25.842 29.72-47.432 35.386-4.645 1.227-9.524 2.019-14.544 2.515-3.119 0.309-6.263 0.575-9.505 0.575-16.63 0-34.762-4.563-48.639-13.447-2.774-1.785-5.348-3.762-7.732-5.883-9.25-8.247-15.307-19.037-15.307-32.345 0-3.775 0.585-2.342 1.412-13.91h268.758z" />
<glyph unicode="&#xe316;" glyph-name="bhy-occupation-16" d="M175.257 895.979h667.779c61.216 0 111.3-50.086 111.3-111.3v-667.779c0-61.212-50.083-111.296-111.3-111.296h-667.779c-61.213 0-111.296 50.083-111.296 111.296v667.779c-0.001 61.214 50.082 111.3 111.296 111.3v0zM763.542 450.764c0 0-0.029 0-0.064-0.003l-77.319 171.182v16.651h-141.873c0 24.263-15.907 41.798-36.951 41.798-19.878 0-36.944-16.372-36.944-41.798h-139.546v-19.395l-76.045-168.439c-0.025 0.003-0.046 0.003-0.046 0.003 0-0.032 0-0.068 0-0.103v0 0c0.049-49.859 35.94-95.247 91.561-95.247 56.856 0 91.501 45.366 91.561 95.219v0c0 0.050 0 0.085 0 0.135 0-0.003-0.021-0.003-0.057-0.007l-69.275 153.998h110.387v-324.819h-108.22c-41.496 0-58.853-20.512-58.853-58.747h394.576c0 32.835-16.901 58.747-58.862 58.747h-114.601v324.849h116.812l-69.292-154.027c-0.046 0.003-0.075 0.003-0.075 0.003 0-49.902 35.897-95.35 91.558-95.35 56.856 0 91.5 45.366 91.561 95.215v0 0.003c-0.001 0.044-0.001 0.087 0.006 0.133v0zM398.291 450.703l-51.959 132.156-52.034-132.156c30.751-0.017 73.224-0.017 103.993 0v0zM619.99 450.703c30.745-0.017 73.17-0.017 103.93 0l-51.959 132.156-51.971-132.156z" />
<glyph unicode="&#xe317;" glyph-name="bhy-occupation-17" d="M175.26 895.979h667.782c61.207 0 111.293-50.086 111.293-111.3v-667.777c0-61.213-50.086-111.297-111.293-111.297h-667.782c-61.213 0-111.299 50.083-111.299 111.297v667.778c-0.001 61.213 50.086 111.299 111.299 111.299v0zM320.355 705.187v0c-18.033 0-34.471-7.38-46.328-19.274-11.894-11.894-19.274-28.301-19.274-46.332v-79.273h48.876c3.63 27.154 18.099 47.478 35.425 47.478 17.361 0 31.83-20.321 35.425-47.443h25.912c3.498 27.406 18.063 47.95 35.524 47.946 17.457 0 32.022-20.573 35.517-47.946h171.239c3.502 27.406 18.063 47.95 35.517 47.946 17.493 0 32.058-20.573 35.557-47.946h49.795v79.238c0 18.032-7.381 34.438-19.271 46.332-11.893 11.894-28.335 19.274-46.364 19.274h-377.55zM763.541 536.109h-49.64c-3.243-27.888-17.968-48.971-35.681-48.971-17.677 0-32.339 21.051-35.645 48.971h-170.947c-3.247-27.888-17.94-48.971-35.652-48.971s-32.402 21.083-35.645 48.971h-25.636c-3.109-28.144-17.868-49.447-35.642-49.447s-32.533 21.303-35.677 49.447h-48.624v-169.585h193.628c3.499 27.41 18.060 47.953 35.517 47.953 17.488 0 32.058-20.607 35.55-47.953h24.205c3.108 28.141 17.869 49.48 35.677 49.48 17.773 0 32.498-21.339 35.677-49.48h27.126c3.368 27.665 18.029 48.429 35.613 48.429 17.617 0 32.278-20.764 35.614-48.429h50.182v169.585zM763.541 342.261v-0.032h-50.243c-3.342-27.633-18.003-48.429-35.583-48.429-17.617 0-32.278 20.796-35.617 48.429h-27.379c-3.594-27.064-18.056-47.41-35.425-47.41-17.361 0-31.83 20.317-35.425 47.41h-24.319c-3.247-27.856-17.972-48.94-35.652-48.94-17.677 0-32.37 21.051-35.642 48.94h-193.503v-80.23c0-18.060 7.38-34.468 19.242-46.361 11.89-11.862 28.296-19.239 46.361-19.239h377.583c18.032 0 34.473 7.377 46.364 19.267 11.858 11.894 19.239 28.304 19.239 46.365v80.23z" />
<glyph unicode="&#xe318;" glyph-name="bhy-occupation-18" d="M175.26 895.979h667.782c61.207 0 111.293-50.083 111.293-111.3v-667.779c0-61.209-50.086-111.296-111.293-111.296h-667.782c-61.213 0-111.3 50.086-111.3 111.296v667.779c0 61.217 50.087 111.3 111.3 111.3v0zM699.944 196.402v0c46.702 0 64.262 32.128 39.42 71.541l-166.615 262.68v132.162h21.201c11.592 0 21.197 9.605 21.197 21.197 0 11.595-9.605 21.204-21.197 21.204h-169.6c-11.589 0-21.197-9.609-21.197-21.204 0-11.592 9.609-21.197 21.197-21.197h21.204v-132.163l-166.62-262.679c-24.841-39.414-7.284-71.541 39.42-71.541h381.59zM391.226 365.993h235.84l-90.092 142.101-6.628 10.272v144.418h-42.401v-144.418l-6.624-10.272-90.096-142.101z" />
<glyph unicode="&#xe319;" glyph-name="bhy-occupation-19" d="M175.255 895.979h667.786c61.209 0 111.3-50.083 111.3-111.296v-667.783c0-61.212-50.090-111.296-111.3-111.296h-667.786c-61.206 0-111.296 50.083-111.296 111.296v667.783c0 61.213 50.090 111.296 111.296 111.296v0zM699.942 603.428h-95.398v67.838c0 18.66-14.309 33.921-31.798 33.921h-127.198c-17.489 0-31.795-15.261-31.795-33.921v-67.838h-95.397c-34.982 0-63.602-30.521-63.602-67.841v-271.351c0-37.313 28.616-67.838 63.602-67.838h381.587c34.982 0 63.601 30.525 63.601 67.838v271.351c0 37.313-28.62 67.841-63.602 67.841v0zM445.549 671.266v-67.838h127.199v67.838h-127.199zM636.345 365.993v67.835h-95.401v101.759h-63.594v-101.759h-95.397v-67.835h95.397v-101.758h63.594v101.758h95.401z" />
<glyph unicode="&#xe320;" glyph-name="bhy-occupation-20" d="M175.26 895.979h667.781c61.213 0 111.296-50.083 111.296-111.296v-667.78c0-61.213-50.082-111.296-111.296-111.296h-667.781c-61.213 0-111.299 50.082-111.299 111.296v667.781c-0.001 61.212 50.086 111.295 111.299 111.295v0zM509.139 705.187c-140.479 0-254.38-113.907-254.38-254.4 0-140.478 113.9-254.387 254.38-254.387 140.497 0 254.403 113.907 254.403 254.387 0.001 140.493-113.906 254.4-254.403 254.4v0zM509.139 239.013v0c-116.952 0-211.759 94.819-211.759 211.772 0 116.97 94.807 211.78 211.759 211.78 116.969 0 211.783-94.811 211.783-211.78 0-116.955-94.81-211.772-211.783-211.772zM489.003 280.243h37.98v42.808c44.096 7.888 67.873 39.47 67.873 76.456 0 37.813-18.033 60.674-63.662 78.12-32.983 12.891-46.41 22.031-46.41 35.34 0 11.628 8.065 23.677 32.987 23.677 27.608 0 45.637-9.562 55.224-14.547l11.507 46.971c-13.423 6.638-30.681 12.879-55.997 13.706v36.571h-37.593v-39.484c-41.035-8.302-64.804-36.979-64.804-73.965 0-40.321 27.995-61.092 69.030-76.051 28.765-10.389 41.042-20.37 41.042-36.156 0-16.215-14.963-25.76-37.214-25.76-24.919 0-47.545 8.732-63.665 18.28l-11.496-48.624c14.569-8.722 39.499-16.62 65.198-17.862v-39.48z" />
<glyph unicode="&#xe321;" glyph-name="bhy-occupation-21" d="M175.253 895.979h667.783c61.213 0 111.297-50.086 111.297-111.3v-667.783c0-61.21-50.083-111.293-111.297-111.293h-667.783c-61.213 0-111.292 50.082-111.292 111.293v667.784c0 61.213 50.079 111.299 111.292 111.299v0zM387.294 281.908h-76.957v34.204h76.957v-34.204zM521.677 424.279h-26.722l-64.822-110.906-64.811 110.906h-26.76c-34.339 0-62.175-27.491-62.175-61.479v-166.403h307.493v166.403c0.001 33.988-27.874 61.479-62.203 61.479v0zM383.021 295.845v8.892h-68.239v-8.892h68.239zM431.462 414.32l4.364 4.272-5.692 5.688-5.719-5.688 4.137-4.018-12.738-62.164v-0.561l14.367-10.474 14.239 10.474v0.561l-12.959 61.909zM518.084 517.784c0 48.057-39.46 87.052-88.123 87.052-48.692 0-88.112-38.994-88.112-87.052 0-48.052 39.42-87.051 88.112-87.051 48.663 0 88.123 38.998 88.123 87.051v0zM712.067 616.293v9.193h-247.17v-9.193h247.17zM637.285 639.598v9.232h-172.389v-9.232h172.389zM509.149 705.182c-135.786 0-245.843-39.722-245.843-88.716 0-20.268 19.025-38.866 50.668-53.83 2.090 0.852 3.548 2.012 4.094 3.552 0.607 1.576 0.22 3.459-0.975 5.506-28.305 13.604-44.463 29.549-44.463 44.771 0 37.622 97.131 79.522 236.519 79.522 139.384 0 236.519-41.9 236.519-79.522 0-33.821-78.586-71.021-195.647-78.202-1.621-1.625-2.433-3.378-2.307-4.999 0.167-1.497 1.15-2.824 2.736-4.063 18.213 1.11 35.95 2.732 52.631 5.216-5.174-24.373-54.727-59.73-47.5-61.143 7.954-1.576 55.454 33.481 69.392 53.659 2.821 4.106 4.446 8.257 5.557 12.401 74.263 15.265 124.464 44.079 124.464 77.131-0.002 48.994-110.059 88.716-245.845 88.716z" />
<glyph unicode="&#xe322;" glyph-name="bhy-occupation-22" d="M175.261 895.979h667.782c61.21 0 111.293-50.086 111.293-111.3v-667.779c0-61.212-50.082-111.296-111.293-111.296h-667.782c-61.213 0-111.299 50.083-111.299 111.296v667.779c0 61.214 50.086 111.3 111.299 111.3v0zM383.943 364.568l17.422-111.455h30.238l17.443 111.455-32.569 27.718-32.534-27.718zM711.775 648.465h-405.154c-28.548 0-51.864-23.631-51.864-52.72v-257.382c21.066 28.794 48.45 52.148 80.654 66.894l19.913-44.437 32.303 36c-18.656 6.082-34.829 17.663-46.637 33.19-12.393 16.432-19.947 36.986-19.947 59.439 0 53.627 42.688 97.171 95.436 97.171 52.786 0 95.443-43.544 95.443-97.171 0-22.452-7.504-43.011-20.068-59.439-11.677-15.527-28.002-27.107-46.541-33.19l32.242-36 20.136 44.713c59.208-26.54 103.746-80.877 117.856-146.636 0.448-1.94 0.448-3.843 0.578-5.787h95.653c28.52 0 51.768 23.631 51.768 52.762v289.874c-0.001 29.089-23.25 52.719-51.769 52.719v0zM694.907 461.128c4.265 0 7.771 3.92 7.771 8.831 0 4.85-3.506 8.853-7.771 8.853h-110.292c-4.279 0-7.806-4.002-7.806-8.853 0-4.911 3.526-8.831 7.806-8.831h110.292zM694.907 509.294c4.265 0 7.771 3.985 7.771 8.831 0 4.868-3.506 8.87-7.771 8.87h-110.292c-4.279 0-7.806-4.002-7.806-8.87 0-4.846 3.526-8.831 7.806-8.831h110.292z" />
<glyph unicode="&#xe323;" glyph-name="bhy-occupation-23" d="M175.26 895.979h667.779c61.209 0 111.3-50.086 111.3-111.3v-667.779c0-61.212-50.090-111.296-111.3-111.296h-667.779c-61.213 0-111.3 50.083-111.3 111.296v667.779c0 61.214 50.087 111.3 111.3 111.3v0zM525.289 265.14h-0.923c-5.258 5.138-31.447 31.906-35.364 56.193-4.357 27.006 51.331 69.431 51.331 69.431l3.917 19.178c-8.105 3.775-13.462 6.429-16.697 8.105l-0.256 29.825c5.677 5.337 14.313 17.095 18.592 41.329 8.232 3.129 13.477 13.575 14.36 29.208 0.081 1.284 0.266 2.987 0.468 4.939 1.557 14.825 2.338 27.679-3.87 34.963-0.519 0.618-1.080 1.171-1.675 1.667 2.143 17.695 3.232 30.525 2.449 38.754-1.544 16.762-12.171 71.723-85.004 74.987-50.547-2.718-81.203-40.655-84.386-74.974-0.689-7.444 0-19.249 2.307-38.775-0.597-0.503-1.15-1.064-1.675-1.667-6.199-7.252-5.457-20.072-3.96-34.847 0.206-1.99 0.384-3.729 0.465-5.059 0.94-15.651 6.185-26.090 14.36-29.237 4.258-24.251 12.894-36.039 18.574-41.383l-0.295-30.007c-5.975-3.154-19.021-9.618-44.43-20.675-18.827-8.204-25.177-9.311-30.781-10.29-6.671-1.163-12.432-2.164-30.446-11.581-44.53-23.279-54.309-70.694-56.455-91.032h-0.056c-0.525-3.328-2.048-14.327-0.171-19.671 4.907-10.627 16.169-18.441 28.25-18.441l241.408 0.178v17.993h-0.042l0.006 0.888zM509.308 430.198v0 0zM762.339 337.172c-0.295 0.38-0.634 0.72-1.018 1.018l-11.116 11.080-107.538 107.539-2.029-2.033-0.551 0.554-117.657-117.338c-0.078-0.071-0.156-0.145-0.227-0.224-0.995-1.040-1.604-2.445-1.604-3.998 0-3.208 2.604-5.808 5.808-5.808h8.019v-0.011h27.301v-100.094h163.796v100.094l32.309 0.011c3.158 0 5.713 2.558 5.713 5.716-0.002 1.316-0.456 2.527-1.205 3.495z" />
<glyph unicode="&#xe324;" glyph-name="bhy-occupation-24" d="M175.26 895.979h667.779c61.212 0 111.3-50.083 111.3-111.3v-667.779c0-61.209-50.087-111.296-111.3-111.296h-667.779c-61.213 0-111.3 50.086-111.3 111.296v667.779c0 61.217 50.087 111.3 111.3 111.3v0zM254.76 705.187v-508.504h252.411v508.504h-252.411zM284.295 579.087h64.861v64.141c-19.721 0-38.807 0.312-57.857-0.383-2.434-0.092-6.592-5.354-6.695-8.332-0.628-18.053-0.309-36.141-0.309-55.426v0zM413.925 577.92c19.004 0 37.504-0.397 55.954 0.415 2.828 0.125 7.579 5.673 7.757 8.91 0.827 15.367 0.926 30.837-0.046 46.183-0.216 3.484-5.574 9.317-8.81 9.481-17.918 0.933-35.922 0.45-54.854 0.45v-65.439h-0.001zM349.841 323.288c0 19.317 0.578 36.799-0.486 54.181-0.22 3.517-6.447 9.226-10.233 9.51-14.832 1.11-29.829 0.893-44.707 0.12-3.45-0.181-9.459-4.392-9.573-6.954-0.824-18.83-0.444-37.711-0.444-56.857l65.444 0.001zM414.144 387.407v-63.399h63.86c0 18.852 0.496 36.365-0.433 53.794-0.177 3.356-5.791 8.998-9.14 9.176-17.471 0.922-35.031 0.429-54.287 0.429v0zM348.982 514.975c-19.838 0-38.839 0.249-57.818-0.312-2.327-0.071-6.415-4.406-6.486-6.855-0.546-18.841-0.298-37.703-0.298-56.114h64.601c0 21.328 0 41.254 0 63.281v0zM477.998 515.096c-20.63 0-38.64 0.242-56.636-0.256-2.768-0.078-7.735-3.498-7.8-5.492-0.588-19.377-0.355-38.781-0.355-59 19.714 0 36.774-0.578 53.738 0.44 3.86 0.23 10.347 5.812 10.563 9.247 1.080 17.415 0.49 34.927 0.49 55.061v0zM604.239 322.387h98.686v-125.826h60.524v283.563h-219.867v-283.723h60.656v125.985zM542.845 516.53h220.697v27.853h-220.697v-27.853z" />
<glyph unicode="&#xe325;" glyph-name="bhy-occupation-25" d="M175.259 895.979h667.783c61.213 0 111.293-50.083 111.293-111.296v-667.779c0-61.22-50.079-111.3-111.293-111.3h-667.783c-61.213 0-111.3 50.079-111.3 111.3v667.779c0 61.213 50.087 111.296 111.3 111.296v0zM509.149 705.187c-140.497 0-254.391-113.897-254.391-254.394 0-140.501 113.893-254.395 254.391-254.395 140.502 0 254.391 113.894 254.391 254.395 0 140.497-113.893 254.394-254.391 254.394v0zM654.88 389.512l61.292 61.281-61.292 61.281-46.318-46.325h-53.385l-46.329 46.325-46.321-46.325h-52.789l-46.318 46.325-61.292-61.281 61.292-61.281 46.318 46.318h52.789l46.321-46.318 46.329 46.317h53.386l46.317-46.317z" />
<glyph unicode="&#xe326;" glyph-name="bhy-occupation-26" d="M175.257 895.979h667.779c61.216 0 111.3-50.083 111.3-111.296v-667.779c0-61.22-50.083-111.3-111.3-111.3h-667.779c-61.213 0-111.296 50.079-111.296 111.3v667.779c-0.001 61.213 50.082 111.296 111.296 111.296v0zM534.68 452.484v0c0 17.131 7.072 34.155 19.174 46.265 12.104 12.116 29.131 19.167 46.269 19.167 17.13 0 34.162-7.050 46.272-19.167 12.111-12.11 19.153-29.134 19.153-46.265 0-17.133-7.042-34.154-19.153-46.268s-29.142-19.16-46.272-19.16c-17.137 0-34.165 7.046-46.269 19.16-12.113 12.114-19.174 29.134-19.174 46.268zM488.284 302.158v0c-1.944-2.935-4.208-5.811-7.067-8.556-13.097-12.514-38.697-22.583-84.59 0 25.406 3.414 33.942 15.939 45.318 28.453 11.158 12.267 38.721 38.758 65.598 11.912 0.44 0.013 0.887 0.028 1.334 0.028 0.667 0 1.333-0.021 1.986-0.060 26.888 26.902 54.465 0.39 65.621-11.88 11.375-12.514 19.913-25.039 45.317-28.453-45.891-22.583-71.488-12.514-84.584 0-2.168 2.079-3.993 4.233-5.596 6.433l-0.124-0.166c-4.775 6.159-13.114 10.247-22.619 10.247-8.289 0-15.669-3.101-20.594-7.958zM479.3 468.124h54.003v-27.008h-53.13c-2.363-13.099-8.718-25.483-18.138-34.9-12.114-12.114-29.142-19.16-46.269-19.16-17.131 0-34.152 7.046-46.262 19.16-12.121 12.114-19.175 29.134-19.175 46.268 0 17.13 7.054 34.155 19.175 46.265 12.11 12.116 29.131 19.167 46.262 19.167 17.127 0 34.155-7.050 46.269-19.167 8.434-8.431 14.405-19.241 17.265-30.816v0.191zM509.158 676.233c-48.082 0-92.526-17.233-128.349-46.301v0c-1.376-1.122-2.747-2.253-4.094-3.41h-0.004c-1.352-1.153-2.692-2.321-4.020-3.506v0c-1.32-1.189-2.636-2.391-3.932-3.612v0c-45.459-42.72-74.25-105.764-74.25-175.959 0-3.623 0.085-7.228 0.242-10.814 0.273-6.028 0.766-12.003 1.448-17.904l-0.060 0.067c13.060-114.887 103.604-204.127 213.019-204.127 109.393 0 199.944 89.24 213.014 204.12l-0.064-0.074c0.717 6.269 1.224 12.606 1.494 19.007 0.032 0.951 0.075 1.901 0.1 2.853l0.035 1.412c0.039 1.82 0.068 3.641 0.068 5.46 0 2.009-0.025 4.009-0.071 6.001-0.050 1.993-0.121 3.981-0.213 5.961-0.093 1.983-0.206 3.96-0.345 5.926-0.142 1.969-0.298 3.927-0.483 5.883-0.184 1.951-0.394 3.9-0.62 5.841s-0.476 3.867-0.746 5.798v0c-0.273 1.923-0.571 3.839-0.886 5.748v0c-0.316 1.909-0.647 3.811-1.008 5.702-0.358 1.891-0.735 3.778-1.138 5.652v0c-0.398 1.877-0.821 3.743-1.26 5.599v0c-0.44 1.859-0.905 3.712-1.387 5.549v0c-0.487 1.841-0.991 3.669-1.512 5.492v0c-0.522 1.824-1.064 3.634-1.636 5.433v0c-0.561 1.799-1.142 3.595-1.742 5.375v0c-0.607 1.781-1.227 3.555-1.867 5.315v0.003c-0.646 1.764-1.305 3.509-1.986 5.248v0c-0.677 1.746-1.38 3.47-2.094 5.191v0c-0.719 1.717-1.454 3.424-2.21 5.12v0c-0.755 1.696-1.525 3.378-2.317 5.053v0c-35.603 75.272-107.918 126.898-191.126 126.898v0zM745.14 446.988c12.6 23.702 18.398 50.005 18.398 77.709 0 104.615-109.376 189.41-254.38 189.41-145.029 0-254.401-84.794-254.401-189.399 0-27.701 5.791-54.003 18.401-77.709-0.014-1.178-0.043-2.364-0.043-3.552 0-141.14 105.886-255.97 236.043-255.97 130.147 0 236.021 114.83 236.021 255.97 0 1.181-0.033 2.363-0.040 3.541z" />
<glyph unicode="&#xe327;" glyph-name="bhy-occupation-27" d="M175.256 895.979h667.781c61.212 0 111.296-50.083 111.296-111.296v-667.78c0-61.213-50.083-111.3-111.296-111.3h-667.781c-61.213 0-111.296 50.086-111.296 111.3v667.781c0 61.212 50.083 111.295 111.296 111.295v0zM548.026 187.589v164.185l-86.845-28.512 86.845-135.673zM498.508 309.966l25.242-39.441v47.736l-25.242-8.295zM351.462 289.202l198.587 70.063-72.943 98.39 94.442-91.66 191.992 66.461-508.784 281.541 96.707-424.795zM290.45 666.5l78.621-345.346 141.896 50.054-142.144 191.736 18.21 15.938 190.703-185.062 126.404 43.76-413.689 228.921z" />
<glyph unicode="&#xe328;" glyph-name="bhy-occupation-28" d="M175.256 895.979h667.778c61.216 0 111.299-50.083 111.299-111.296v-667.78c0-61.213-50.082-111.3-111.299-111.3h-667.778c-61.213 0-111.296 50.086-111.296 111.3v667.781c0 61.212 50.083 111.295 111.296 111.295v0zM254.753 450.794c0-17.103 7.039-34.091 19.132-46.183s29.080-19.132 46.18-19.132c17.101 0 34.095 7.040 46.183 19.132s19.132 29.080 19.132 46.183c0 17.095-7.043 34.090-19.132 46.183-12.088 12.088-29.080 19.125-46.183 19.125-17.098 0-34.087-7.036-46.18-19.125-12.092-12.092-19.132-29.089-19.132-46.183v0zM443.835 450.794c0-17.103 7.039-34.091 19.132-46.183 12.088-12.091 29.084-19.132 46.183-19.132s34.090 7.040 46.177 19.132c12.094 12.091 19.131 29.080 19.131 46.183 0 17.095-7.036 34.090-19.131 46.183-12.086 12.088-29.077 19.125-46.177 19.125-17.098 0-34.093-7.036-46.183-19.125-12.092-12.092-19.132-29.089-19.132-46.183v0zM632.914 450.794c0-17.103 7.039-34.091 19.132-46.183 12.088-12.091 29.080-19.132 46.183-19.132 17.095 0 34.095 7.040 46.184 19.132s19.128 29.080 19.128 46.183c0 17.095-7.040 34.090-19.128 46.183-12.088 12.088-29.089 19.125-46.184 19.125-17.103 0-34.093-7.036-46.183-19.125-12.093-12.092-19.132-29.089-19.132-46.183z" />
<glyph unicode="&#xe90a;" glyph-name="bhy-reviewed" d="M958.411 105.17c-16.471 78.658-92.807 146.647-201.515 187.877l-193.372-286.315-23.659 128.634c15.815 8.582 26.271 23.943 26.271 41.593 0 26.913-24.761 48.883-55.361 48.883-30.774 0-55.525-21.97-55.525-48.883 0-17.65 10.567-33.012 26.406-41.593l-23.287-126.507-192.009 284.189c-108.772-41.23-184.979-109.217-201.365-187.877l-1.035-104.64h895.445l-0.996 104.64zM252.673 680.562c0-2.39 0.122-4.732 0.207-7.019-5.373 0.725-10.769 0.617-16.172-0.371-33.564-6.349-52.53-44.922-42.378-86.205 10.148-41.34 45.519-69.709 79.086-63.304 1.334 0.157 2.438 0.525 3.707 0.885 29.269-117.604 123.378-221.611 235.016-221.611 111.562 0 205.526 103.857 234.99 221.354 0.924-0.211 1.727-0.575 2.703-0.628 33.568-6.405 68.941 21.963 79.093 63.304 10.18 41.283-8.804 79.858-42.321 86.205-5.020 0.946-10.125 0.989-15.162 0.468 0.086 2.294 0.235 4.639 0.235 6.923 0 118.957-116.249 215.418-259.537 215.418-143.307-0.001-259.466-96.462-259.466-215.418z" />
<glyph unicode="&#xe90b;" glyph-name="bhy-agree" d="M892.828 539.347h-244.797c94.857 339.306-65.358 356.631-65.358 356.631-67.9 0-53.826-52.005-58.956-60.677 0-165.931-181.972-295.954-181.972-295.954v-470.563c0-46.45 65.35-63.179 90.989-63.179h367.808c34.616 0 62.803 87.92 62.803 87.92 90.993 299.682 90.986 388.849 90.986 388.849 0.010 61.915-61.504 56.973-61.504 56.973v0zM241.281 539.192h-146.583c-30.27 0-30.738-28.801-30.738-28.801l30.269-474.583c0-30.203 31.242-30.203 31.242-30.203h126.873c26.427 0 26.193 19.979 26.193 19.979v477.618c0.001 36.447-37.254 35.99-37.254 35.99v0z" />
<glyph unicode="&#xe90c;" glyph-name="bhy-rec-bag" d="M175.259 895.979h667.783c61.213 0 111.293-50.083 111.293-111.296v-667.779c0-61.213-50.079-111.3-111.293-111.3h-667.783c-61.213 0-111.3 50.086-111.3 111.3v667.779c0 61.213 50.087 111.296 111.3 111.296v0zM536.208 705.187c-5.95-46.052-14.428-91.746-25.256-137.084-10.915-45.339-23.9-89.964-39.151-133.877h74.154l11.364 37.945c2.711-10.78 6.050-22.354 9.835-34.648s7.942-24.585 12.269-36.877c4.329-12.206 8.747-23.694 13.075-34.297-12.99-28.856-27.331-57.448-43.121-85.774-15.693-28.328-32.924-56.384-51.598-84.177h86.062c5.595 8.644 11.188 17.816 16.691 27.616 5.591 9.707 11.003 19.684 16.417 29.751 5.322 10.151 10.553 20.040 15.605 29.748 4.868-9.53 10.105-19.327 15.519-29.485 5.407-10.151 11.007-20.125 16.599-29.926 5.592-9.888 11.184-19.060 16.598-27.704h80.648c-17.323 26.459-33.555 53.712-48.713 81.682-15.155 27.878-29.23 56.47-42.216 85.6 9.016 23.070 17.586 48.007 25.525 74.732 8.030 26.722 15.427 54.422 22.19 83.194 6.77 28.68 12.898 57.719 18.315 86.846h26.519v30.461h-165.081c1.625 8.286 2.98 15.768 4.147 22.538 1.175 6.77 2.256 13.628 3.254 20.488 1.075 6.947 2.164 14.605 3.425 23.247l-73.076 0.001zM348.395 329.477c-5.322 0.177-9.743 2.136-13.348 5.968-3.612 3.828-5.415 8.551-5.595 14.339v319.063h-74.693v-334.562c0.089-6.501 1.533-12.38 4.507-17.546 2.892-5.255 6.77-9.353 11.73-12.472 4.961-3.027 10.555-4.63 16.776-4.723h100.137v-102.607h76.314v508.25h-76.314v-375.71h-39.513zM667.739 608.452h-74.15c1.26-11.223 3.151-23.336 5.677-36.341 2.527-13.008 5.503-26.367 8.842-39.995 3.428-13.628 7.040-26.991 10.822-39.903 3.792-13.007 7.671-25.032 11.456-36.078 4.156 11.582 8.123 23.873 11.731 36.877 3.608 13.007 6.943 26.277 10.012 39.729 3.070 13.359 5.866 26.544 8.48 39.46 2.616 12.822 4.964 24.939 7.128 36.251z" />
<glyph unicode="&#xe90d;" glyph-name="bhy-send-bag" d="M175.257 895.979h667.779c61.216 0 111.3-50.083 111.3-111.296v-667.779c0-61.213-50.083-111.3-111.3-111.3h-667.779c-61.213 0-111.296 50.086-111.296 111.3v667.779c-0.001 61.213 50.082 111.296 111.296 111.296v0zM340.538 196.398c17.422 33.85 33.778 68.055 49.234 102.528 15.364 34.474 29.844 69.129 43.515 103.781 15.009-15.846 30.113-31.696 45.303-47.457 15.275-15.846 30.912-31.522 46.906-47.098-19.835-18.536-41.010-36.983-63.438-55.43-22.52-18.443-46.2-36.979-71.13-55.785h110.981c13.401 10.744 26.267 21.402 38.689 31.969 12.334 10.563 24.31 21.221 35.834 31.965 12.603-10.478 25.643-21.043 39.225-31.788 13.581-10.655 27.792-21.402 42.801-32.146h105.080c-24.12 18.266-47.89 36.713-71.308 55.245-23.322 18.627-46.010 37.433-68.086 56.508 18.673 20.144 36.546 40.738 53.524 61.959 16.89 21.132 33.42 43.164 49.415 65.907 3.034 4.652 4.649 9.58 4.734 14.774 0.181 5.191-1.16 10.027-3.932 14.682-2.771 4.566-6.877 8.328-12.423 11.194-5.538 2.867-12.33 4.386-20.551 4.478h-232.14c2.679 7.252 5.361 14.597 7.954 22.116 2.676 7.433 5.181 14.956 7.59 22.478h285.221v30.62h-274.495c8.040 24.447 15.811 49.161 23.41 73.966 7.508 24.802 14.924 49.604 22.159 74.32h-81.492c-6.969-24.983-14.207-49.788-21.799-74.501-7.508-24.713-15.463-49.338-23.772-73.784h-48.78c-1.881 0-3.576 0.447-5.095 1.253-1.526 0.805-2.682 1.973-3.484 3.584-1.074 1.611-1.611 3.225-1.703 4.836 0 1.611 0.362 3.221 1.168 4.833l33.233 103.156h-82.556l-36.994-111.214c-1.877-4.028-2.771-8.236-2.682-12.629 0.085-4.293 1.342-8.502 3.75-12.625 2.416-3.761 5.453-6.713 9.116-8.682 3.661-2.062 7.77-3.133 12.33-3.133h111.516c-19.48-55.877-41.105-111.306-64.693-166.374-23.588-54.98-49.594-109.512-77.915-163.508l85.78 0.001zM452.050 451.601l-11.261-30.092h67.018c10.187-11.279 20.728-22.382 31.631-33.396 10.903-10.925 21.981-21.673 33.243-32.147 23.588 25.253 45.566 51.577 65.94 78.976 1.342 1.615 2.147 3.313 2.501 5.194 0.27 1.792 0.181 3.673-0.355 5.552-0.805 1.7-1.874 3.041-3.306 4.208-1.342 1.075-3.126 1.704-5.272 1.704l-180.139 0.001zM737.271 580.006l-55.224 113.357h-81.488l55.217-113.357h81.495z" />
<glyph unicode="&#xe90e;" glyph-name="bhy-withdraw" d="M175.256 895.979h667.783c61.213 0 111.296-50.083 111.296-111.296v-667.779c0-61.213-50.082-111.3-111.296-111.3h-667.783c-61.213 0-111.296 50.086-111.296 111.3v667.779c0 61.213 50.083 111.296 111.296 111.296v0zM583.226 410.68l137.68 0.574c35.5-5.883 40.436-65.678 9.633-81.438l-156.248-0.667c-42.521 10.563-46.116 73.264 8.934 81.531v0zM324.439 605.22l21.2-45.321 28.045 0.096 241.135 90.955-25.338 54.237-265.041-99.967zM589.613 387.489c-10.262-0.032-18.543-8.466-18.512-18.867 0.046-10.403 8.41-18.837 18.674-18.801 10.261 0.064 18.549 8.558 18.496 18.958-0.032 10.404-8.398 18.767-18.659 18.71v0 0zM647.139 576.841l60.656 0.256c9.366 5.070 8.587 21.804-1.6 25.004l-68.057-0.288c2.025-6.977 6.556-17.735 9.001-24.973v0 0zM480.545 560.442l165.512 0.703c-9.959 26.197-13.682 36.248-21.899 56.242-14.064-5.815-119.531-47.478-143.613-56.945v0 0zM254.756 542.331c0.469-110.15 0.923-220.176 1.377-330.265l1.593-6.263 1.569-3.169 3.094-3.069 1.547-1.615 3.098-1.554 456.31 1.917c6.324 3.263 8.573 5.712 10.776 12.563l1.099 108.024c34.982 17.858 41.198 79.717-1.976 100.134l-0.483 119.002c0.414 4.914-2.4 11.822-9.357 12.504l-436.569-1.753c3.496 13.342 8.618 23.94 31.441 26.491-3.673 8.076-8.664 18.897-11.173 24.323-30.039-3.678-47.116-19.177-52.346-57.27z" />
<glyph unicode="&#xe90f;" glyph-name="bhy-legal" d="M175.257 895.979h667.779c61.216 0 111.3-50.083 111.3-111.296v-667.779c0-61.213-50.083-111.3-111.3-111.3h-667.779c-61.213 0-111.296 50.086-111.296 111.3v667.779c-0.001 61.213 50.082 111.296 111.296 111.296v0zM418.353 652.957l125.463-74.8c3.467-2.055 7.891-0.816 9.892 2.753l3.608 6.461c2.016 3.565 0.824 8.154-2.626 10.226l-125.471 74.785c-3.46 2.072-7.916 0.834-9.889-2.722l-3.634-6.479c-1.996-3.575-0.829-8.153 2.655-10.225v0 0 0zM309.708 458.63l125.456-74.817c3.47-2.022 7.895-0.801 9.892 2.751l3.619 6.461c2.019 3.552 0.813 8.178-2.64 10.247l-125.475 74.767c-3.467 2.072-7.895 0.816-9.881-2.732l-3.619-6.464c-2.026-3.55-0.837-8.13 2.647-10.213v0 0zM752.12 367.257l-251.094 134.362 33.732 60.358c2.016 3.569 0.813 8.158-2.629 10.23l-112.906 67.309c-3.47 2.054-7.923 0.816-9.914-2.754l-79.689-142.48c-1.959-3.569-0.788-8.175 2.646-10.233l112.949-67.302c3.434-2.071 7.891-0.824 9.861 2.728l33.793 60.376 238.232-157.352c3.352-2.218 7.745-1.099 9.73 2.449l18.105 32.402c1.974 3.534 0.704 8.004-2.816 9.907v0 0zM791.752 348.345l-12.582 7.465c-3.424 2.055-7.906 0.813-9.888-2.753l-21.751-38.849c-1.98-3.553-0.762-8.158 2.662-10.209l12.547-7.466c3.453-2.082 7.909-0.827 9.908 2.736l21.728 38.849c1.983 3.569 0.813 8.175-2.623 10.226v0zM520.647 302.204h-15.121c1.897 2.203-4.626 0.16-4.626 3.335v38.807h-240.894v-38.807c0-3.172-12.852-1.129-10.928-3.335h-15.118c-6.607 0-11.003-9.293-11.003-16.059v-38.807c0-6.753 4.414-19.139 11.003-19.139h286.686c6.595 0 17.301 12.386 17.301 19.139v38.807c-0.001 6.749-10.703 16.059-17.299 16.059v0 0zM500.898 247.336v0c6.929 0 18.518 12.252 18.518 19.401 0.029 7.111-11.584 19.409-18.518 19.409h-240.893c-6.904 0.014-18.5-12.284-18.528-19.409 0-7.132 11.624-19.401 18.528-19.401h240.893z" />
<glyph unicode="&#xe910;" glyph-name="bhy-rules" d="M175.26 895.979h667.782c61.207 0 111.293-50.083 111.293-111.296v-667.779c0-61.213-50.086-111.3-111.293-111.3h-667.782c-61.213 0-111.3 50.086-111.3 111.3v667.779c0 61.213 50.087 111.296 111.3 111.296v0zM727.197 668.832v-472.421h-381.597c-30.103 0-54.503 24.398-54.503 54.508 0 30.114 24.401 54.503 54.503 54.503h345.252v436.093h-363.412c-39.981 0-72.687-32.703-72.687-72.684v-436.083c0-39.976 32.707-72.677 72.687-72.677h436.1v508.76h-36.344zM363.785 269.093v-36.345h327.068v36.345h-327.068z" />
<glyph unicode="&#xe911;" glyph-name="bhy-legal2" d="M175.26 895.979h667.781c61.206 0 111.292-50.083 111.292-111.299v-667.777c0-61.213-50.086-111.3-111.292-111.3h-667.781c-61.213 0-111.299 50.086-111.299 111.3v667.777c-0.001 61.216 50.086 111.299 111.299 111.299v0zM373.304 267.888c-11.131-18.766-8.097-27.97 14.565-27.97h121.387v-0.174c41.606 0 83.215-0.060 124.822 0 20.568 0.057 23.829 8.037 13.639 25.814-54.371 94.342-218.997 95.744-274.412 2.33v0zM584.545 264.858c6.758 0.061 15.501 0.121 16.080 8.857 0.237 4.374-4.837 9.91-8.736 13.579-34.619 32.168-124.821 33.275-161.885 2.213-5.184-4.311-12.472-8.682-10.375-16.318 2.747-10.081 12.593-8.21 20.282-8.332 22.963-0.348 45.921-0.117 68.877-0.117 25.231 0 50.526-0.114 75.757 0.117v0zM756.564 487.524c-8.444 18.88-18.528 37.117-28.492 55.302-14.689 26.803-47.904 55.298 8.161 74.235 0.93 0.351 1.685 1.576 2.331 2.509 4.833 6.525 10.953 13.288 3.9 21.384-6.057 6.937-12.872 3.090-18.181-1.576-18.532-16.602-37.294-10.836-58.097-3.846-105.243 35.318-210.833 35.432-315.78-1.572-19.757-6.993-37.646-10.606-54.951 4.779-6.178 5.479-14.107 11.074-20.693 1.806-7.16-10.081 0.411-19.987 8.161-22.961 51.048-19.519 25.817-46.616 8.622-73.54-7.459-11.652-14.566-23.659-20.448-36.071-12.475-26.164-27.626-53.205-3.733-80.419 26.108-29.833 59.965-37.763 97.55-27.793 54.312 14.391 70.573 49.472 45.57 99.469-12.876 25.699-27.563 50.642-43.121 74.885-14.161 22.023-16.318 35.485 14.278 44.984 28.027 8.742 56.643 10.549 84.957 15.328 20.807 3.496 30.188-7.576 30.305-27.448 0.234-33.506 0.064-67.014 0.064-100.46h0.404c0-30.014-0.816-60.080 0.348-90.095 0.465-12.234-6.936-33.445 12.528-33.388 15.964 0 10.436 20.222 10.663 31.763 0.817 43.876 0.351 87.757 0.351 131.694 0 97.667 13.7 107.222 107.805 75.112 1.106-0.344 2.156-0.813 3.261-1.224 35.897-12.816 36.95-16.080 17.836-48.014-14.214-23.772-29.016-47.262-41.375-71.968-24.707-49.532-8.1-84.553 45.104-100.754 24.883-7.576 48.074-3.204 70.801 6.582 35.954 15.445 47.901 45.339 31.87 81.296z" />
<glyph unicode="&#xe912;" glyph-name="bhy-release" d="M509.151 895.979c122.908 0 234.208-49.841 314.776-130.41 80.568-80.565 130.407-191.861 130.407-314.777 0-122.912-49.838-234.212-130.407-314.78s-191.867-130.406-314.776-130.406c-122.916 0-234.216 49.838-314.781 130.407-80.569 80.567-130.41 191.867-130.41 314.779 0 122.916 49.841 234.212 130.41 314.777 80.565 80.569 191.865 130.41 314.781 130.41v0zM806.439 748.084c-76.087 76.094-181.205 123.165-297.288 123.165-116.090 0-221.202-47.071-297.296-123.165-76.090-76.090-123.158-181.206-123.158-297.292s47.071-221.201 123.158-297.292c76.094-76.094 181.206-123.164 297.296-123.164 116.082 0 221.2 47.070 297.288 123.164 76.087 76.090 123.161 181.205 123.161 297.292s-47.074 221.201-123.161 297.292v0zM328.903 476.417v-51.256h360.492v51.256h-360.492zM689.395 476.417c-14.146 0-25.629-11.478-25.629-25.626 0-14.15 11.483-25.632 25.629-25.632 14.153 0 25.629 11.481 25.629 25.632 0 14.147-11.475 25.626-25.629 25.626v0zM328.903 476.417c-14.157 0-25.632-11.478-25.632-25.626 0-14.15 11.474-25.632 25.632-25.632 14.143 0 25.626 11.481 25.626 25.632 0 14.147-11.483 25.626-25.626 25.626v0zM534.779 631.043h-51.26v-360.503h51.26v360.503zM509.151 656.594c-14.15 0-25.633-11.444-25.633-25.551 0-14.111 11.483-25.558 25.633-25.558 14.146 0 25.628 11.447 25.628 25.558 0 14.108-11.481 25.551-25.628 25.551v0zM509.151 296.095c-14.15 0-25.633-11.447-25.633-25.555s11.483-25.554 25.633-25.554c14.146 0 25.628 11.447 25.628 25.554s-11.481 25.555-25.628 25.555z" />
<glyph unicode="&#xe913;" glyph-name="bhy-memeng" d="M362.266 652.4v0c43.815-0.006 81.232-10.302 114.89-67.769 29.066 57.834 70.636 65.915 115.173 65.915 58.285 0 114.399-55.518 114.399-133.579 0-90.361-81.43-121.904-134.39-160.255-48.458-35.080-90.17-84.388-95.173-104.368-5.848 20.415-42.842 68.317-95.173 103.35-53.942 36.127-134.384 69.903-134.384 160.265 0 80.271 56.121 136.455 114.656 136.442zM477.166 524.482v0c-4.956 0-8.981-4.004-8.981-8.952v-54.181h-54.175c-4.96 0-8.985-4.024-8.985-8.981s4.025-8.974 8.985-8.974h54.175v-54.182c0.003-4.947 4.024-8.951 8.981-8.951 4.962 0 8.981 4.004 8.981 8.951v54.182h54.181c4.953 0 8.974 4.019 8.974 8.974s-4.022 8.981-8.974 8.981h-54.181v54.181c0 4.947-4.018 8.952-8.981 8.952zM477.166 895.979v0c-114.083 0-217.387-46.261-292.165-121.042-74.784-74.777-121.042-178.079-121.042-292.165 0-114.082 46.259-217.387 121.042-292.168 74.777-74.781 178.082-121.039 292.165-121.039 114.087 0 217.388 46.258 292.165 121.039 74.781 74.78 121.042 178.086 121.042 292.168 0 114.087-46.261 217.388-121.042 292.165-74.777 74.781-178.079 121.042-292.165 121.042zM753.105 758.709c70.626-70.626 114.314-168.189 114.314-275.936s-43.689-205.311-114.314-275.937c-70.626-70.629-168.192-114.317-275.939-114.317s-205.308 43.688-275.936 114.317c-70.629 70.626-114.314 168.189-114.314 275.936s43.685 205.311 114.314 275.936c70.629 70.628 168.189 114.317 275.936 114.317s205.313-43.688 275.939-114.316z" />
<glyph unicode="&#xe914;" glyph-name="bhy-receng" d="M500.471 873.552c120.521 0 229.647-48.868 308.646-127.866 78.997-78.998 127.867-188.126 127.867-308.644s-48.87-229.645-127.867-308.643c-78.998-78.997-188.125-127.867-308.646-127.867-120.516 0-229.645 48.87-308.643 127.867-78.998 78.998-127.868 188.126-127.868 308.644s48.869 229.646 127.868 308.644c78.998 78.997 188.128 127.865 308.643 127.865v0zM791.974 728.538c-74.611 74.608-177.676 120.763-291.502 120.763-113.821 0-216.889-46.155-291.496-120.763-74.61-74.607-120.765-177.674-120.765-291.496s46.155-216.89 120.765-291.496c74.607-74.61 177.675-120.764 291.496-120.764 113.826 0 216.891 46.154 291.502 120.764 74.605 74.606 120.761 177.675 120.761 291.496s-46.156 216.89-120.761 291.496zM379.088 616.238c-61.833 0.013-121.122-59.341-121.122-144.135 0-95.459 84.984-131.142 141.965-169.306 55.28-37.010 94.361-87.608 100.54-109.183 5.285 21.111 49.351 73.2 100.542 110.256 55.947 40.515 141.965 73.836 141.965 169.294 0 82.465-59.282 141.115-120.853 141.115-47.048 0-90.96-8.537-121.662-69.634-35.559 60.71-75.088 71.584-121.375 71.593v0zM459.517 476.23c15.614-0.003 28.955-3.674 40.954-24.158 10.355 20.616 25.175 23.497 41.050 23.497 20.78 0 40.78-19.789 40.78-47.619 0-32.208-29.022-43.452-47.903-57.123-17.272-12.503-32.144-30.081-33.927-37.202-2.082 7.281-15.27 24.354-33.925 36.841-19.228 12.877-47.9 24.92-47.9 57.129 0.001 28.61 20.007 48.637 40.871 48.635z" />
</font>
</defs>
</svg>
